<?xml version="1.0" encoding="UTF-8" standalone="no"?>
<!-- Created with Inkscape (http://www.inkscape.org/) -->

<svg
   xmlns:dc="http://purl.org/dc/elements/1.1/"
   xmlns:cc="http://creativecommons.org/ns#"
   xmlns:rdf="http://www.w3.org/1999/02/22-rdf-syntax-ns#"
   xmlns:svg="http://www.w3.org/2000/svg"
   xmlns="http://www.w3.org/2000/svg"
   xmlns:sodipodi="http://sodipodi.sourceforge.net/DTD/sodipodi-0.dtd"
   xmlns:inkscape="http://www.inkscape.org/namespaces/inkscape"
   version="1.1"
   id="svg2"
   xml:space="preserve"
   width="700"
   height="700"
   viewBox="0 0 700 700"
   sodipodi:docname="movida-logo.svg"
   inkscape:export-filename="C:\Users\alex\sites\movida-logo-0.png"
   inkscape:export-xdpi="561.73712"
   inkscape:export-ydpi="561.73712"
   inkscape:version="0.92.3 (2405546, 2018-03-11)"><metadata
     id="metadata8"><rdf:RDF><cc:Work
         rdf:about=""><dc:format>image/svg+xml</dc:format><dc:type
           rdf:resource="http://purl.org/dc/dcmitype/StillImage" /><dc:title></dc:title></cc:Work></rdf:RDF></metadata><defs
     id="defs6"><clipPath
       clipPathUnits="userSpaceOnUse"
       id="clipPath560"><path
         d="m 311.34,367.08 h 4.62 v 3.18 h -4.62 z"
         id="path558"
         inkscape:connector-curvature="0" /></clipPath><clipPath
       clipPathUnits="userSpaceOnUse"
       id="clipPath576"><path
         d="m 311.34,367.08 h 4.62 v 3.18 h -4.62 z"
         id="path574"
         inkscape:connector-curvature="0" /></clipPath><clipPath
       clipPathUnits="userSpaceOnUse"
       id="clipPath594"><path
         d="m 427.38,367.08 h 9.24 v 3.18 h -9.24 z"
         id="path592"
         inkscape:connector-curvature="0" /></clipPath><clipPath
       clipPathUnits="userSpaceOnUse"
       id="clipPath610"><path
         d="m 427.38,367.08 h 9.24 v 3.18 h -9.24 z"
         id="path608"
         inkscape:connector-curvature="0" /></clipPath><clipPath
       clipPathUnits="userSpaceOnUse"
       id="clipPath626"><path
         d="m 427.38,367.08 h 9.24 v 3.18 h -9.24 z"
         id="path624"
         inkscape:connector-curvature="0" /></clipPath><clipPath
       clipPathUnits="userSpaceOnUse"
       id="clipPath644"><path
         d="m 547.68,367.08 h 13.86 v 3.18 h -13.86 z"
         id="path642"
         inkscape:connector-curvature="0" /></clipPath><clipPath
       clipPathUnits="userSpaceOnUse"
       id="clipPath660"><path
         d="m 547.68,367.08 h 13.86 v 3.18 h -13.86 z"
         id="path658"
         inkscape:connector-curvature="0" /></clipPath><clipPath
       clipPathUnits="userSpaceOnUse"
       id="clipPath676"><path
         d="m 547.68,367.08 h 13.86 v 3.18 h -13.86 z"
         id="path674"
         inkscape:connector-curvature="0" /></clipPath><clipPath
       clipPathUnits="userSpaceOnUse"
       id="clipPath692"><path
         d="m 547.68,367.08 h 13.86 v 3.18 h -13.86 z"
         id="path690"
         inkscape:connector-curvature="0" /></clipPath><clipPath
       clipPathUnits="userSpaceOnUse"
       id="clipPath872"><path
         d="m 124.277,98.516 h 57.04 V 90.19 h -57.04 v 8.326"
         id="path870"
         inkscape:connector-curvature="0" /></clipPath><clipPath
       clipPathUnits="userSpaceOnUse"
       id="clipPath928"><path
         d="m 124.277,98.516 h 57.04 V 90.19 h -57.04 v 8.326"
         id="path926"
         inkscape:connector-curvature="0" /></clipPath><clipPath
       clipPathUnits="userSpaceOnUse"
       id="clipPath940"><path
         d="M 246.167,102.675 H 197.95 V 86.848 h 48.217 z"
         id="path938"
         inkscape:connector-curvature="0" /></clipPath><clipPath
       clipPathUnits="userSpaceOnUse"
       id="clipPath1016"><path
         d="M 328.073,102.441 H 262.796 V 82.86 h 65.277 z"
         id="path1014"
         inkscape:connector-curvature="0" /></clipPath><clipPath
       clipPathUnits="userSpaceOnUse"
       id="clipPath1218"><path
         d="m 514.739,102.839 h 55.64 V 90.725 h -55.64 z"
         id="path1216"
         inkscape:connector-curvature="0" /></clipPath><clipPath
       clipPathUnits="userSpaceOnUse"
       id="clipPath1254"><path
         d="m 41.34,88.466 h 66.308 v 13.926 H 41.34 Z"
         id="path1252"
         inkscape:connector-curvature="0" /></clipPath><clipPath
       clipPathUnits="userSpaceOnUse"
       id="clipPath1398"><path
         d="m 289.44,58.545 h 33.12 v -9.2248 h -33.12 z"
         id="path1396"
         inkscape:connector-curvature="0" /></clipPath></defs><sodipodi:namedview
     pagecolor="#ffffff"
     bordercolor="#666666"
     borderopacity="1"
     objecttolerance="10"
     gridtolerance="10"
     guidetolerance="10"
     inkscape:pageopacity="0"
     inkscape:pageshadow="2"
     inkscape:window-width="1600"
     inkscape:window-height="838"
     id="namedview4"
     showgrid="false"
     inkscape:zoom="0.63211061"
     inkscape:cx="279.86207"
     inkscape:cy="197.91781"
     inkscape:window-x="-8"
     inkscape:window-y="-8"
     inkscape:window-maximized="1"
     inkscape:current-layer="g10" /><g
     id="g10"
     inkscape:groupmode="layer"
     inkscape:label="movida"
     transform="matrix(1.3333333,0,0,-1.3333333,0,700)"><path
       d="M 44.847207,161.70112 H 480.15281 V 363.29889 H 44.847207 Z"
       style="fill:#f36717;fill-opacity:1;fill-rule:nonzero;stroke:none;stroke-width:3.90966129"
       id="path84-8-9"
       inkscape:connector-curvature="0"
       inkscape:export-filename="C:\Users\alex\sites\movida-logo-4.png"
       inkscape:export-xdpi="66.160416"
       inkscape:export-ydpi="66.160416" /><g
       id="g86-6-5"
       transform="matrix(3.9096613,0,0,3.9096613,357.51847,263.51261)"
       inkscape:export-filename="C:\Users\alex\sites\movida-logo-4.png"
       inkscape:export-xdpi="66.160416"
       inkscape:export-ydpi="66.160416"><path
         d="m 0,0 c 0,-0.291 0,-0.608 -0.053,-0.9 -0.159,-1.003 -1.033,-1.849 -2.198,-1.849 -1.511,0 -2.597,1.083 -2.597,2.96 0,1.639 0.821,3.04 2.622,3.04 1.14,0 2.014,-0.82 2.199,-1.85 C 0,1.215 0,1.004 0,0.818 Z M 0,12.555 V 5.682 h -0.053 c -0.689,0.926 -2.066,1.268 -3.576,1.268 -3.338,0 -6.358,-2.589 -6.332,-6.924 0,-4.334 2.968,-6.714 6.014,-6.714 1.616,0 3.364,0.556 4.345,2.194 H 0.451 L 0.636,-6.37 H 5.112 C 5.06,-5.683 5.007,-3.965 5.007,-2.273 V 12.555 H 0"
         style="fill:#4f4c4d;fill-opacity:1;fill-rule:evenodd;stroke:none"
         id="path88-4-1"
         inkscape:connector-curvature="0" /></g><g
       id="g90-4-7"
       transform="matrix(3.9096613,0,0,3.9096613,414.66207,258.75846)"
       inkscape:export-filename="C:\Users\alex\sites\movida-logo-4.png"
       inkscape:export-xdpi="66.160416"
       inkscape:export-ydpi="66.160416"><path
         d="m 0,0 c 0,-0.237 0,-0.502 -0.053,-0.714 -0.211,-0.766 -1.006,-1.347 -1.775,-1.347 -0.926,0 -1.431,0.422 -1.431,1.162 0,1.058 1.059,1.613 3.259,1.613 z m 4.822,2.431 c 0,3.49 -1.909,5.736 -6.384,5.736 -2.915,0 -4.85,-0.766 -5.697,-1.216 l 0.875,-3.118 c 0.848,0.475 2.488,1.031 3.947,1.031 1.96,0 2.278,-0.582 2.278,-1.058 v -0.08 c -4.927,0 -8.053,-1.611 -8.053,-5.1 0,-2.115 1.695,-4.098 4.556,-4.098 1.484,0 2.862,0.37 3.815,1.428 h 0.106 l 0.264,-1.11 H 5.033 C 4.902,-4.573 4.822,-3.303 4.822,-1.93 v 4.361"
         style="fill:#4f4c4d;fill-opacity:1;fill-rule:evenodd;stroke:none"
         id="path92-3-2"
         inkscape:connector-curvature="0" /></g><g
       id="g94-2-8"
       transform="matrix(3.9096613,0,0,3.9096613,91.078947,272.7707)"
       inkscape:export-filename="C:\Users\alex\sites\movida-logo-4.png"
       inkscape:export-xdpi="66.160416"
       inkscape:export-ydpi="66.160416"><path
         d="m 0,0 c 0,1.851 -0.053,3.358 -0.107,4.521 h 4.16 L 4.239,2.856 h 0.105 c 0.398,0.554 1.537,1.982 4.08,1.982 1.695,0 3.126,-0.793 3.735,-2.195 h 0.052 c 0.584,0.741 1.22,1.27 1.935,1.64 0.715,0.37 1.536,0.555 2.464,0.555 2.888,0 4.742,-2.008 4.742,-5.815 v -7.507 h -4.821 v 6.767 c 0,1.691 -0.583,2.59 -1.722,2.59 -0.848,0 -1.378,-0.555 -1.59,-1.19 -0.106,-0.316 -0.132,-0.739 -0.132,-1.003 V -8.484 H 8.265 v 6.767 c 0,1.691 -0.582,2.59 -1.722,2.59 C 5.536,0.873 5.112,0.107 4.953,-0.29 4.821,-0.633 4.821,-0.977 4.821,-1.268 V -8.484 H 0 V 0"
         style="fill:#ffffff;fill-opacity:1;fill-rule:evenodd;stroke:none"
         id="path96-5-7"
         inkscape:connector-curvature="0" /></g><g
       id="g98-0-9"
       transform="matrix(3.9096613,0,0,3.9096613,207.927,251.90091)"
       inkscape:export-filename="C:\Users\alex\sites\movida-logo-4.png"
       inkscape:export-xdpi="66.160416"
       inkscape:export-ydpi="66.160416"><path
         d="m 0,0 c -1.616,0 -2.358,1.507 -2.358,3.356 0,1.692 0.636,3.358 2.384,3.358 1.59,0 2.279,-1.534 2.279,-3.358 C 2.305,1.19 1.457,0 0.026,0 Z m -0.053,-3.462 c 4.186,0 7.602,2.536 7.602,6.977 0,3.912 -2.992,6.661 -7.31,6.661 -5.008,0 -7.789,-2.96 -7.789,-6.924 0,-4.283 3.417,-6.714 7.471,-6.714 h 0.026"
         style="fill:#ffffff;fill-opacity:1;fill-rule:evenodd;stroke:none"
         id="path100-9-4"
         inkscape:connector-curvature="0" /></g><g
       id="g102-6-7"
       transform="matrix(3.9096613,0,0,3.9096613,255.98847,290.44626)"
       inkscape:export-filename="C:\Users\alex\sites\movida-logo-4.png"
       inkscape:export-xdpi="66.160416"
       inkscape:export-ydpi="66.160416"><path
         d="m 0,0 1.642,-5.63 c 0.292,-0.978 0.477,-1.93 0.636,-2.829 h 0.106 c 0.159,0.952 0.318,1.824 0.582,2.829 L 4.45,0 H 9.801 L 4.663,-13.006 h -5.14 L -5.458,0 H 0"
         style="fill:#ffffff;fill-opacity:1;fill-rule:evenodd;stroke:none"
         id="path104-6-4"
         inkscape:connector-curvature="0" /></g><g
       id="g106-0-2"
       transform="matrix(3.9096613,0,0,3.9096613,322.68728,229.522)"
       inkscape:export-filename="C:\Users\alex\sites\movida-logo-4.png"
       inkscape:export-xdpi="66.160416"
       inkscape:export-ydpi="66.160416"><path
         d="m 0,0 c -1.87,2.431 -2.983,5.473 -2.983,8.773 0,3.646 0.765,6.965 3.001,9.504 l -3.569,1.915 c -2.49,-3.139 -3.437,-7.106 -3.437,-11.419 0,-3.994 1.274,-7.691 3.438,-10.708 L 0,0"
         style="fill:#ffffff;fill-opacity:1;fill-rule:evenodd;stroke:none"
         id="path108-5-1"
         inkscape:connector-curvature="0" /></g><g
       id="g110-7-8"
       transform="matrix(3.9096613,0,0,3.9096613,332.87587,317.51676)"
       inkscape:export-filename="C:\Users\alex\sites\movida-logo-4.png"
       inkscape:export-xdpi="66.160416"
       inkscape:export-ydpi="66.160416"><path
         d="m 0,0 c 0,-1.422 -1.155,-2.573 -2.578,-2.573 -1.425,0 -2.578,1.151 -2.578,2.573 0,1.42 1.153,2.572 2.578,2.572 C -1.155,2.572 0,1.42 0,0"
         style="fill:#ffffff;fill-opacity:1;fill-rule:evenodd;stroke:none"
         id="path112-5-7"
         inkscape:connector-curvature="0" /></g><g
       id="g114-6-0"
       transform="matrix(3.9096613,0,0,3.9096613,99.171957,209.05885)"
       inkscape:export-filename="C:\Users\alex\sites\movida-logo-4.png"
       inkscape:export-xdpi="66.160416"
       inkscape:export-ydpi="66.160416"><path
         d="m 0,0 c -0.542,0.007 -0.962,-0.122 -0.962,-0.521 0,-0.264 0.176,-0.392 0.406,-0.392 0.258,0 0.468,0.169 0.535,0.379 C -0.007,-0.48 0,-0.419 0,-0.358 Z m 0.122,-1.562 -0.061,0.331 h -0.02 c -0.217,-0.264 -0.556,-0.406 -0.949,-0.406 -0.671,0 -1.071,0.487 -1.071,1.015 0,0.859 0.772,1.271 1.945,1.264 V 0.69 c 0,0.176 -0.095,0.426 -0.603,0.426 -0.339,0 -0.698,-0.115 -0.915,-0.25 l -0.19,0.662 c 0.231,0.129 0.685,0.291 1.288,0.291 1.105,0 1.457,-0.649 1.457,-1.427 v -1.15 c 0,-0.317 0.014,-0.622 0.047,-0.804 H 0.122"
         style="fill:#231f20;fill-opacity:1;fill-rule:nonzero;stroke:none"
         id="path116-2-4"
         inkscape:connector-curvature="0" /></g><path
       d="m 106.27189,202.95196 h 4.02813 v 18.77184 h -4.02813 z"
       style="fill:#231f20;fill-opacity:1;fill-rule:nonzero;stroke:none;stroke-width:3.90966129"
       id="path118-0-1"
       inkscape:connector-curvature="0"
       inkscape:export-filename="C:\Users\alex\sites\movida-logo-4.png"
       inkscape:export-xdpi="66.160416"
       inkscape:export-ydpi="66.160416" /><g
       id="g120-6-5"
       transform="matrix(3.9096613,0,0,3.9096613,125.77329,207.10402)"
       inkscape:export-filename="C:\Users\alex\sites\movida-logo-4.png"
       inkscape:export-xdpi="66.160416"
       inkscape:export-ydpi="66.160416"><path
         d="m 0,0 c 0,-0.433 0.013,-0.785 0.027,-1.062 h -0.895 l -0.047,0.467 h -0.02 c -0.129,-0.203 -0.441,-0.541 -1.038,-0.541 -0.67,0 -1.165,0.419 -1.165,1.44 v 1.941 h 1.037 V 0.467 c 0,-0.48 0.156,-0.771 0.515,-0.771 0.285,0 0.447,0.196 0.515,0.358 0.027,0.061 0.034,0.142 0.034,0.223 V 2.245 H 0 V 0"
         style="fill:#231f20;fill-opacity:1;fill-rule:nonzero;stroke:none"
         id="path122-8-3"
         inkscape:connector-curvature="0" /></g><g
       id="g124-8-5"
       transform="matrix(3.9096613,0,0,3.9096613,137.24423,210.62272)"
       inkscape:export-filename="C:\Users\alex\sites\movida-logo-4.png"
       inkscape:export-xdpi="66.160416"
       inkscape:export-ydpi="66.160416"><path
         d="m 0,0 c 0,0.067 -0.007,0.135 -0.02,0.189 -0.075,0.271 -0.272,0.453 -0.556,0.453 -0.373,0 -0.678,-0.338 -0.678,-0.94 0,-0.493 0.244,-0.879 0.678,-0.879 0.264,0 0.474,0.176 0.542,0.419 C -0.007,-0.683 0,-0.575 0,-0.487 Z M 1.057,1.346 C 1.044,1.136 1.03,0.859 1.03,0.365 v -1.846 c 0,-0.636 -0.128,-1.157 -0.501,-1.488 -0.366,-0.311 -0.861,-0.406 -1.349,-0.406 -0.434,0 -0.895,0.088 -1.193,0.257 l 0.203,0.778 c 0.21,-0.122 0.576,-0.25 0.963,-0.25 0.488,0 0.86,0.263 0.86,0.872 v 0.216 H 0 c -0.196,-0.277 -0.515,-0.432 -0.895,-0.432 -0.82,0 -1.403,0.662 -1.403,1.616 0,1.062 0.691,1.738 1.505,1.738 0.454,0 0.739,-0.196 0.908,-0.467 h 0.014 l 0.034,0.393 h 0.894"
         style="fill:#231f20;fill-opacity:1;fill-rule:nonzero;stroke:none"
         id="path126-1-5"
         inkscape:connector-curvature="0" /></g><g
       id="g128-7-3"
       transform="matrix(3.9096613,0,0,3.9096613,156.71826,207.10402)"
       inkscape:export-filename="C:\Users\alex\sites\movida-logo-4.png"
       inkscape:export-xdpi="66.160416"
       inkscape:export-ydpi="66.160416"><path
         d="m 0,0 c 0,-0.433 0.013,-0.785 0.027,-1.062 h -0.895 l -0.047,0.467 h -0.02 c -0.129,-0.203 -0.441,-0.541 -1.038,-0.541 -0.67,0 -1.165,0.419 -1.165,1.44 v 1.941 h 1.037 V 0.467 c 0,-0.48 0.156,-0.771 0.515,-0.771 0.285,0 0.447,0.196 0.515,0.358 0.027,0.061 0.034,0.142 0.034,0.223 V 2.245 H 0 V 0"
         style="fill:#231f20;fill-opacity:1;fill-rule:nonzero;stroke:none"
         id="path130-2-5"
         inkscape:connector-curvature="0" /></g><g
       id="g132-3-4"
       transform="matrix(3.9096613,0,0,3.9096613,167.79042,210.88466)"
       inkscape:export-filename="C:\Users\alex\sites\movida-logo-4.png"
       inkscape:export-xdpi="66.160416"
       inkscape:export-ydpi="66.160416"><path
         d="M 0,0 C 0,0.25 -0.108,0.67 -0.583,0.67 -1.017,0.67 -1.193,0.277 -1.22,0 Z m -1.213,-0.703 c 0.034,-0.427 0.454,-0.629 0.935,-0.629 0.353,0 0.637,0.047 0.915,0.135 l 0.136,-0.697 c -0.339,-0.135 -0.753,-0.203 -1.2,-0.203 -1.125,0 -1.769,0.65 -1.769,1.685 0,0.838 0.522,1.764 1.674,1.764 1.071,0 1.478,-0.831 1.478,-1.649 0,-0.176 -0.021,-0.332 -0.034,-0.406 h -2.135"
         style="fill:#231f20;fill-opacity:1;fill-rule:nonzero;stroke:none"
         id="path134-0-8"
         inkscape:connector-curvature="0" /></g><path
       d="m 173.9364,202.95196 h 4.02852 v 18.77184 h -4.02852 z"
       style="fill:#231f20;fill-opacity:1;fill-rule:nonzero;stroke:none;stroke-width:3.90966129"
       id="path136-7-9"
       inkscape:connector-curvature="0"
       inkscape:export-filename="C:\Users\alex\sites\movida-logo-4.png"
       inkscape:export-xdpi="66.160416"
       inkscape:export-ydpi="66.160416" /><g
       id="g138-1-2"
       transform="matrix(3.9096613,0,0,3.9096613,195.10722,210.40768)"
       inkscape:export-filename="C:\Users\alex\sites\movida-logo-4.png"
       inkscape:export-xdpi="66.160416"
       inkscape:export-ydpi="66.160416"><path
         d="M 0,0 C 0,0.054 -0.007,0.128 -0.014,0.182 -0.075,0.46 -0.298,0.69 -0.617,0.69 c -0.468,0 -0.711,-0.42 -0.711,-0.94 0,-0.562 0.278,-0.913 0.704,-0.913 0.299,0 0.536,0.203 0.597,0.493 C -0.007,-0.595 0,-0.521 0,-0.433 Z M 1.03,2.894 V -0.92 c 0,-0.372 0.014,-0.764 0.027,-0.987 H 0.142 L 0.095,-1.42 H 0.081 c -0.21,-0.372 -0.61,-0.562 -1.037,-0.562 -0.786,0 -1.416,0.67 -1.416,1.698 -0.007,1.116 0.691,1.758 1.484,1.758 0.407,0 0.725,-0.142 0.874,-0.372 H 0 v 1.792 h 1.03"
         style="fill:#231f20;fill-opacity:1;fill-rule:nonzero;stroke:none"
         id="path140-2-7"
         inkscape:connector-curvature="0" /></g><g
       id="g142-9-1"
       transform="matrix(3.9096613,0,0,3.9096613,210.20634,210.88466)"
       inkscape:export-filename="C:\Users\alex\sites\movida-logo-4.png"
       inkscape:export-xdpi="66.160416"
       inkscape:export-ydpi="66.160416"><path
         d="M 0,0 C 0,0.25 -0.108,0.67 -0.583,0.67 -1.017,0.67 -1.193,0.277 -1.22,0 Z m -1.213,-0.703 c 0.034,-0.427 0.454,-0.629 0.935,-0.629 0.353,0 0.637,0.047 0.915,0.135 l 0.136,-0.697 c -0.339,-0.135 -0.753,-0.203 -1.2,-0.203 -1.125,0 -1.769,0.65 -1.769,1.685 0,0.838 0.522,1.764 1.674,1.764 1.071,0 1.478,-0.831 1.478,-1.649 0,-0.176 -0.021,-0.332 -0.034,-0.406 h -2.135"
         style="fill:#231f20;fill-opacity:1;fill-rule:nonzero;stroke:none"
         id="path144-1-7"
         inkscape:connector-curvature="0" /></g><g
       id="g146-6-9"
       transform="matrix(3.9096613,0,0,3.9096613,231.42798,203.26864)"
       inkscape:export-filename="C:\Users\alex\sites\movida-logo-4.png"
       inkscape:export-xdpi="66.160416"
       inkscape:export-ydpi="66.160416"><path
         d="m 0,0 c -0.183,-0.081 -0.529,-0.149 -0.922,-0.149 -1.071,0 -1.755,0.649 -1.755,1.691 0,0.967 0.664,1.758 1.898,1.758 0.271,0 0.569,-0.047 0.786,-0.128 L -0.156,2.407 c -0.122,0.054 -0.305,0.102 -0.576,0.102 -0.542,0 -0.895,-0.385 -0.888,-0.927 0,-0.608 0.407,-0.926 0.908,-0.926 0.244,0 0.434,0.041 0.59,0.102 L 0,0"
         style="fill:#231f20;fill-opacity:1;fill-rule:nonzero;stroke:none"
         id="path148-2-0"
         inkscape:connector-curvature="0" /></g><g
       id="g150-7-7"
       transform="matrix(3.9096613,0,0,3.9096613,240.65086,209.05885)"
       inkscape:export-filename="C:\Users\alex\sites\movida-logo-4.png"
       inkscape:export-xdpi="66.160416"
       inkscape:export-ydpi="66.160416"><path
         d="m 0,0 c -0.542,0.007 -0.962,-0.122 -0.962,-0.521 0,-0.264 0.176,-0.392 0.406,-0.392 0.258,0 0.468,0.169 0.535,0.379 C -0.007,-0.48 0,-0.419 0,-0.358 Z M 0.122,-1.562 0.061,-1.231 H 0.04 c -0.216,-0.264 -0.555,-0.406 -0.948,-0.406 -0.671,0 -1.071,0.487 -1.071,1.015 0,0.859 0.772,1.271 1.945,1.264 V 0.69 c 0,0.176 -0.095,0.426 -0.603,0.426 -0.339,0 -0.698,-0.115 -0.915,-0.25 l -0.19,0.662 c 0.231,0.129 0.685,0.291 1.288,0.291 1.105,0 1.457,-0.649 1.457,-1.427 v -1.15 c 0,-0.317 0.014,-0.622 0.047,-0.804 H 0.122"
         style="fill:#231f20;fill-opacity:1;fill-rule:nonzero;stroke:none"
         id="path152-0-8"
         inkscape:connector-curvature="0" /></g><g
       id="g154-2-2"
       transform="matrix(3.9096613,0,0,3.9096613,247.7469,211.62358)"
       inkscape:export-filename="C:\Users\alex\sites\movida-logo-4.png"
       inkscape:export-xdpi="66.160416"
       inkscape:export-ydpi="66.160416"><path
         d="M 0,0 C 0,0.487 -0.013,0.805 -0.027,1.089 H 0.861 L 0.895,0.48 h 0.027 c 0.169,0.48 0.576,0.683 0.894,0.683 0.095,0 0.143,0 0.217,-0.013 V 0.183 C 1.959,0.196 1.871,0.209 1.756,0.209 1.376,0.209 1.118,0.007 1.05,-0.311 1.037,-0.379 1.03,-0.46 1.03,-0.541 V -2.218 H 0 V 0"
         style="fill:#231f20;fill-opacity:1;fill-rule:nonzero;stroke:none"
         id="path156-4-4"
         inkscape:connector-curvature="0" /></g><g
       id="g158-1-4"
       transform="matrix(3.9096613,0,0,3.9096613,257.81428,211.62358)"
       inkscape:export-filename="C:\Users\alex\sites\movida-logo-4.png"
       inkscape:export-xdpi="66.160416"
       inkscape:export-ydpi="66.160416"><path
         d="M 0,0 C 0,0.487 -0.013,0.805 -0.027,1.089 H 0.861 L 0.895,0.48 h 0.027 c 0.169,0.48 0.576,0.683 0.894,0.683 0.095,0 0.143,0 0.217,-0.013 V 0.183 C 1.959,0.196 1.871,0.209 1.756,0.209 1.376,0.209 1.119,0.007 1.05,-0.311 1.037,-0.379 1.03,-0.46 1.03,-0.541 V -2.218 H 0 V 0"
         style="fill:#231f20;fill-opacity:1;fill-rule:nonzero;stroke:none"
         id="path160-5-1"
         inkscape:connector-curvature="0" /></g><g
       id="g162-7-4"
       transform="matrix(3.9096613,0,0,3.9096613,271.09148,209.43026)"
       inkscape:export-filename="C:\Users\alex\sites\movida-logo-4.png"
       inkscape:export-xdpi="66.160416"
       inkscape:export-ydpi="66.160416"><path
         d="m 0,0 c 0,-0.568 0.237,-0.994 0.678,-0.994 0.4,0 0.657,0.399 0.657,0.994 0,0.494 -0.189,0.994 -0.657,0.994 C 0.183,0.994 0,0.487 0,0 m 2.399,0.034 c 0,-1.211 -0.86,-1.765 -1.748,-1.765 -0.97,0 -1.715,0.636 -1.715,1.704 0,1.069 0.705,1.751 1.769,1.751 1.017,0 1.694,-0.696 1.694,-1.69"
         style="fill:#231f20;fill-opacity:1;fill-rule:nonzero;stroke:none"
         id="path164-0-0"
         inkscape:connector-curvature="0" /></g><g
       id="g166-7-8"
       transform="matrix(3.9096613,0,0,3.9096613,282.93385,206.47066)"
       inkscape:export-filename="C:\Users\alex\sites\movida-logo-4.png"
       inkscape:export-xdpi="66.160416"
       inkscape:export-ydpi="66.160416"><path
         d="m 0,0 c 0.19,-0.115 0.583,-0.25 0.888,-0.25 0.312,0 0.441,0.108 0.441,0.277 0,0.169 -0.102,0.25 -0.488,0.379 -0.685,0.23 -0.949,0.602 -0.943,0.994 0,0.615 0.529,1.082 1.349,1.082 0.387,0 0.732,-0.088 0.935,-0.19 L 2,1.582 C 1.85,1.664 1.566,1.772 1.281,1.772 1.03,1.772 0.888,1.67 0.888,1.501 c 0,-0.155 0.129,-0.237 0.536,-0.379 0.63,-0.216 0.894,-0.534 0.901,-1.02 0,-0.616 -0.488,-1.069 -1.437,-1.069 -0.434,0 -0.82,0.094 -1.071,0.23 L 0,0"
         style="fill:#231f20;fill-opacity:1;fill-rule:nonzero;stroke:none"
         id="path168-4-0"
         inkscape:connector-curvature="0" /></g></g></svg>