<svg xmlns="http://www.w3.org/2000/svg" viewBox="0 0 500 500"><g id="freepik--Shadow--inject-1"><ellipse id="freepik--path--inject-1" cx="245.18" cy="412.39" rx="193.89" ry="11.32" style="fill:#f5f5f5"></ellipse></g><g id="freepik--menu-board--inject-1"><rect x="55.18" y="83.86" width="223.37" height="75.91" style="fill:#43CEA2"></rect><rect x="60.95" y="89.63" width="211.84" height="64.38" style="fill:#263238"></rect><rect x="60.95" y="89.63" width="211.84" height="64.38" style="fill:#fff;opacity:0.30000000000000004"></rect><path d="M272.79,89.63V154H61l-5.77,5.76H278.56V83.86Z" style="fill:#fff;opacity:0.30000000000000004"></path><path d="M141.48,107.9H111.64a2.16,2.16,0,0,1-2.15-2.16h0a2.15,2.15,0,0,1,2.15-2.15h29.84a2.16,2.16,0,0,1,2.16,2.15h0A2.16,2.16,0,0,1,141.48,107.9Zm16.93-2.16h0a2.15,2.15,0,0,0-2.15-2.15h-4.19a2.15,2.15,0,0,0-2.15,2.15h0a2.16,2.16,0,0,0,2.15,2.16h4.19A2.16,2.16,0,0,0,158.41,105.74Zm-19.56,10.72h0a2.15,2.15,0,0,0-2.15-2.15H111.64a2.15,2.15,0,0,0-2.15,2.15h0a2.15,2.15,0,0,0,2.15,2.15H136.7A2.15,2.15,0,0,0,138.85,116.46Zm19.56,0h0a2.15,2.15,0,0,0-2.15-2.15h-4.19a2.15,2.15,0,0,0-2.15,2.15h0a2.15,2.15,0,0,0,2.15,2.15h4.19A2.15,2.15,0,0,0,158.41,116.46Zm-16.69,10.71h0a2.15,2.15,0,0,0-2.15-2.15H111.64a2.15,2.15,0,0,0-2.15,2.15h0a2.16,2.16,0,0,0,2.15,2.16h27.93A2.16,2.16,0,0,0,141.72,127.17Zm16.69,0h0a2.15,2.15,0,0,0-2.15-2.15h-4.19a2.15,2.15,0,0,0-2.15,2.15h0a2.16,2.16,0,0,0,2.15,2.16h4.19A2.16,2.16,0,0,0,158.41,127.17ZM136,137.89h0a2.16,2.16,0,0,0-2.15-2.16H111.64a2.16,2.16,0,0,0-2.15,2.16h0a2.15,2.15,0,0,0,2.15,2.15h22.19A2.15,2.15,0,0,0,136,137.89Zm22.43,0h0a2.16,2.16,0,0,0-2.15-2.16h-4.19a2.16,2.16,0,0,0-2.15,2.16h0a2.15,2.15,0,0,0,2.15,2.15h4.19A2.15,2.15,0,0,0,158.41,137.89Z" style="fill:#fff;opacity:0.9"></path><path d="M239.68,107.9h-26a2.16,2.16,0,0,1-2.15-2.16h0a2.15,2.15,0,0,1,2.15-2.15h26a2.16,2.16,0,0,1,2.16,2.15h0A2.16,2.16,0,0,1,239.68,107.9Zm20.76-2.16h0a2.15,2.15,0,0,0-2.15-2.15H254.1a2.16,2.16,0,0,0-2.16,2.15h0a2.16,2.16,0,0,0,2.16,2.16h4.19A2.16,2.16,0,0,0,260.44,105.74Zm-19.56,10.72h0a2.15,2.15,0,0,0-2.15-2.15H213.67a2.15,2.15,0,0,0-2.15,2.15h0a2.15,2.15,0,0,0,2.15,2.15h25.06A2.15,2.15,0,0,0,240.88,116.46Zm19.56,0h0a2.15,2.15,0,0,0-2.15-2.15H254.1a2.16,2.16,0,0,0-2.16,2.15h0a2.16,2.16,0,0,0,2.16,2.15h4.19A2.15,2.15,0,0,0,260.44,116.46Zm-14.78,10.71h0a2.15,2.15,0,0,0-2.15-2.15H213.67a2.15,2.15,0,0,0-2.15,2.15h0a2.16,2.16,0,0,0,2.15,2.16h29.84A2.16,2.16,0,0,0,245.66,127.17Zm14.78,0h0a2.15,2.15,0,0,0-2.15-2.15H254.1a2.16,2.16,0,0,0-2.16,2.15h0a2.16,2.16,0,0,0,2.16,2.16h4.19A2.16,2.16,0,0,0,260.44,127.17Zm-18.6,10.72h0a2.16,2.16,0,0,0-2.16-2.16h-26a2.16,2.16,0,0,0-2.15,2.16h0a2.15,2.15,0,0,0,2.15,2.15h26A2.16,2.16,0,0,0,241.84,137.89Zm18.6,0h0a2.16,2.16,0,0,0-2.15-2.16H254.1a2.16,2.16,0,0,0-2.16,2.16h0A2.16,2.16,0,0,0,254.1,140h4.19A2.15,2.15,0,0,0,260.44,137.89Z" style="fill:#fff;opacity:0.9"></path><polygon points="96.67 138.68 80.85 138.68 78.94 107.42 98.58 107.42 96.67 138.68" style="fill:#43CEA2"></polygon><polygon points="96.67 138.68 80.85 138.68 78.94 107.42 98.58 107.42 96.67 138.68" style="fill:#fff;opacity:0.4"></polygon><polygon points="100.36 109.26 77.16 109.26 78.12 104.95 99.41 104.95 100.36 109.26" style="fill:#263238"></polygon><polygon points="97.21 129.83 98.12 115.01 79.4 115.01 80.31 129.83 97.21 129.83" style="fill:#fff;opacity:0.7000000000000001"></polygon><circle cx="88.76" cy="122.1" r="4.39" style="fill:#43CEA2"></circle><path d="M200.26,113.31a3.15,3.15,0,0,0-2.14.3V112.5H178.2v7.7a10,10,0,0,0,4.69,8.44l-.76,2.5h12.06l-.75-2.5a10,10,0,0,0,3.9-4.59l.28.11c2.12.51,4.42-1.5,5.15-4.49S202.38,113.83,200.26,113.31Zm1.29,6.06c-.49,2-2.07,3.42-3.51,3.07l-.17-.07a10.31,10.31,0,0,0,.25-2.17v-4.82a2.24,2.24,0,0,1,1.72-.35C201.28,115.39,202.05,117.33,201.55,119.37Z" style="fill:#43CEA2"></path><path d="M200.26,113.31a3.15,3.15,0,0,0-2.14.3V112.5H178.2v7.7a10,10,0,0,0,4.69,8.44l-.76,2.5h12.06l-.75-2.5a10,10,0,0,0,3.9-4.59l.28.11c2.12.51,4.42-1.5,5.15-4.49S202.38,113.83,200.26,113.31Zm1.29,6.06c-.49,2-2.07,3.42-3.51,3.07l-.17-.07a10.31,10.31,0,0,0,.25-2.17v-4.82a2.24,2.24,0,0,1,1.72-.35C201.28,115.39,202.05,117.33,201.55,119.37Z" style="fill:#fff;opacity:0.5"></path><path d="M187.73,120.88a1.81,1.81,0,0,0-.88,1.15.7.7,0,0,1-.79.45h0a.71.71,0,0,1-.56-1,3.17,3.17,0,0,1,1.75-2,8,8,0,0,0,2.1-2c-1.1-.34-2.65.28-3.79,1.64-1.35,1.62-1.59,3.65-.53,4.54s3,.3,4.39-1.32a4,4,0,0,0,1-3.88A8.5,8.5,0,0,1,187.73,120.88Z" style="fill:#263238"></path></g><g id="freepik--character-2--inject-1"><path d="M332.09,268.21l-2.73,31.64s8.08-4.85,14-1.35Z" style="fill:#43CEA2"></path><path d="M343.39,177.19s4.63,2.7,8.32,1.15c4.76-2,9.84.25,8.69,5.58s9.6,4.59,5.75,14c-3,7.46-7.79-2.23-9.85,1.48-2.87,5.16-9.41-4.39-9.92-8.8S342.27,187,340.8,179Z" style="fill:#263238"></path><path d="M339.2,179.39a4.87,4.87,0,0,0,5.53.37c2.83-1.85-1.78-4.5-1.78-4.5Z" style="fill:#43CEA2"></path><path d="M314.88,148.61a6.64,6.64,0,0,0,3-3.12c1.85-3.84,6-11,9.51-6.45,4.68,6.07,13.94-2,15.1,10.34s4,6,3.28,15.19-2.67,7.65-1.57,11.69c1.06,3.87-5.33,3.88-8.77,3.48s-10.08,3.58-18-3.48C309.79,169.45,297.51,157.13,314.88,148.61Z" style="fill:#263238"></path><path d="M304.29,194.67c-.07,2-.19,4.25-.39,6.38s-.43,4.32-.74,6.47a89.26,89.26,0,0,1-2.7,12.6l-.23.77a3.92,3.92,0,0,0-.15.52s0,.11-.71.14a18,18,0,0,1-5.5-.94,55.43,55.43,0,0,1-6.07-2.19c-2-.82-4.07-1.75-6-2.67l-2.26,3.55a60.61,60.61,0,0,0,12.1,7.39,22.6,22.6,0,0,0,7.67,2.08,10.23,10.23,0,0,0,2.58-.19,7.47,7.47,0,0,0,3-1.3,7.17,7.17,0,0,0,2.24-2.75c.27-.6.31-.77.43-1.07l.32-.85a74.43,74.43,0,0,0,3.65-13.77c.39-2.32.75-4.65,1-7,.11-1.17.2-2.35.26-3.53s.11-2.33.11-3.64Z" style="fill:#b55b52"></path><path d="M283.43,216.83l-5.67-7.6-2.13,7.6s3.55,3.5,6.64,2.54Z" style="fill:#b55b52"></path><path d="M281.06,208.3h0a1.87,1.87,0,0,0-1.38,1.59l-.47,3.7,2.45,1.16Z" style="fill:#b55b52"></path><polygon points="272.51 206.82 271.07 212.56 275.63 216.83 277.76 209.23 272.51 206.82" style="fill:#b55b52"></polygon><path d="M308.76,185.23c-3.39,0-4.48-.13-5.46,13.54s-3.77,21.91-3.77,21.91-3.2,1.25-13.87-3.85l-3.2,5.32s13.46,9.81,21.17,6.3,8.71-22.93,9.68-31C313.7,194.22,315.4,185.17,308.76,185.23Z" style="fill:#43CEA2"></path><path d="M312.75,202.72l-2.06-6.49-3.87,7.92a74.11,74.11,0,0,1-.66,22.36C310.48,221.63,311.91,210.59,312.75,202.72Z" style="opacity:0.2"></path><polygon points="335.31 405.38 327.54 405.38 326.05 387.4 333.81 387.4 335.31 405.38" style="fill:#b55b52"></polygon><polygon points="402.24 379.78 395.73 384 383.85 370.27 390.37 366.05 402.24 379.78" style="fill:#b55b52"></polygon><path d="M394.2,383.2l6.53-5.78a.62.62,0,0,1,.82,0l5.31,4.51a1.25,1.25,0,0,1,0,1.86c-2.31,2-3.53,2.81-6.4,5.35-1.77,1.56-4.19,4-6.63,6.18s-4.71-.14-3.88-1.25c3.69-5,3.21-7,3.61-9.65A2,2,0,0,1,394.2,383.2Z" style="fill:#263238"></path><path d="M326.79,404.48h8.72a.61.61,0,0,1,.62.53l1,6.9a1.24,1.24,0,0,1-1.24,1.38c-3-.05-4.51-.23-8.34-.23-2.36,0-9.14.24-12.39.24s-3.44-3.22-2.08-3.51c6.08-1.31,10.37-3.11,12.42-4.83A2,2,0,0,1,326.79,404.48Z" style="fill:#263238"></path><polygon points="326.05 387.41 326.82 396.67 334.59 396.67 333.82 387.41 326.05 387.41" style="opacity:0.2"></polygon><polygon points="390.37 366.06 383.86 370.28 389.98 377.35 396.5 373.13 390.37 366.06" style="opacity:0.2"></polygon><path d="M306.44,185.59s-3.6,1.56,7.09,46.45L345,229.76c-1.46-12.76-2.05-20.65,2.16-47.36a93.84,93.84,0,0,0-13.48-.79,100.73,100.73,0,0,0-14.28,1C313.29,183.66,306.44,185.59,306.44,185.59Z" style="fill:#263238"></path><path d="M330.32,168c-.51,4.26-.78,12,2.37,14.62,0,0-.84,4.35-8.66,4.92-8.59.62-4.41-4-4.41-4,4.61-1.46,4.23-4.93,3.18-8.14Z" style="fill:#b55b52"></path><path d="M327.26,171l-4.46,4.4a13.69,13.69,0,0,1,.57,2.29c1.78-.39,4.09-2.54,4.15-4.43A6.56,6.56,0,0,0,327.26,171Z" style="opacity:0.2"></path><path d="M335.13,160.89c-1.61,6.86-2.14,9.8-6.26,12.77-6.18,4.46-14.27,1-14.74-6.24-.42-6.49,2.28-16.62,9.55-18.23A9.62,9.62,0,0,1,335.13,160.89Z" style="fill:#b55b52"></path><path d="M318.27,148c-2.52,3.51,22,16.58,19.68,8.32S324.86,138.79,318.27,148Z" style="fill:#263238"></path><path d="M330.78,156.39c-.6,3.65,4.22,8,4.22,8s6.19-4.56,2.29-7S330.78,156.39,330.78,156.39Z" style="fill:#263238"></path><path d="M313.53,232s-1.77,60.09.46,83.66c2.31,24.52,11.17,79.18,11.17,79.18h10.49s-1.43-54.52-2.26-78.71c-.9-26.36,3.17-85.8,3.17-85.8Z" style="fill:#263238"></path><polygon points="336.56 395.25 324.25 395.25 323.34 391.33 337.14 390.85 336.56 395.25" style="fill:#263238"></polygon><polygon points="336.56 395.25 324.25 395.25 323.34 391.33 337.14 390.85 336.56 395.25" style="fill:#fff;opacity:0.2"></polygon><path d="M328.18,245.9c-6.6,16.09,1.64,44,5.13,54.33.25-15.94,1.21-35.47,2-49.81C333.57,242.46,331.22,238.47,328.18,245.9Z" style="opacity:0.4"></path><path d="M321.84,231.44s12.86,65.39,19.68,84.91c8.11,23.16,45.91,60.52,45.91,60.52l8.88-5.76s-28.41-42.55-34.2-54.65c-12.35-25.81-7.54-70-17.13-86.7Z" style="fill:#263238"></path><polygon points="397.64 370.91 386.62 378.05 383.2 375.35 395.78 366.36 397.64 370.91" style="fill:#263238"></polygon><polygon points="397.64 370.91 386.62 378.05 383.2 375.35 395.78 366.36 397.64 370.91" style="fill:#fff;opacity:0.2"></polygon><path d="M324.73,158.6c-.11.61-.52,1.06-.92,1s-.65-.62-.54-1.24.51-1.06.92-1S324.83,158,324.73,158.6Z" style="fill:#263238"></path><path d="M317.75,157.41c-.1.61-.52,1.06-.92,1s-.65-.63-.54-1.24.52-1.06.92-1S317.86,156.79,317.75,157.41Z" style="fill:#263238"></path><path d="M317.38,156.23l-1.41-.68S316.54,156.84,317.38,156.23Z" style="fill:#263238"></path><path d="M320,158.85a16.62,16.62,0,0,1-2.87,3.56,2.69,2.69,0,0,0,2.13.79Z" style="fill:#a02724"></path><path d="M320.58,166.57a7.72,7.72,0,0,1-.92-.09.18.18,0,1,1,.06-.36,5,5,0,0,0,4.31-1.23.18.18,0,0,1,.27.25A5.21,5.21,0,0,1,320.58,166.57Z" style="fill:#263238"></path><path d="M326.44,157.22a.35.35,0,0,1-.34-.26,4.34,4.34,0,0,0-2.6-2.32.37.37,0,0,1-.24-.47.36.36,0,0,1,.46-.23c.1,0,2.47.82,3.08,2.81a.37.37,0,0,1-.25.46Z" style="fill:#263238"></path><path d="M317.12,154.21a.37.37,0,0,1-.2-.68,3.66,3.66,0,0,1,3.34-.34.37.37,0,0,1,.17.49.35.35,0,0,1-.48.18h0a2.91,2.91,0,0,0-2.64.3A.45.45,0,0,1,317.12,154.21Z" style="fill:#263238"></path><path d="M391.82,386.64h-.09a1.08,1.08,0,0,1-.88-.53.65.65,0,0,1-.07-.63c.41-.91,3.18-1.33,3.5-1.37a.16.16,0,0,1,.18.08.18.18,0,0,1,0,.21C393.88,385.22,392.78,386.57,391.82,386.64Zm2.07-2.09c-1.1.2-2.56.61-2.77,1.09a.24.24,0,0,0,0,.27.68.68,0,0,0,.57.37C392.26,386.29,393.06,385.65,393.89,384.55Z" style="fill:#43CEA2"></path><path d="M394.06,384.52c-1,.07-2.76-.26-3.17-1a.64.64,0,0,1,.13-.79,1,1,0,0,1,.74-.33c1.13,0,2.62,1.67,2.68,1.74a.17.17,0,0,1,0,.18.17.17,0,0,1-.14.12Zm-2.35-1.71a.62.62,0,0,0-.42.2c-.15.18-.12.29-.08.37.28.47,1.77.83,2.71.78a4.14,4.14,0,0,0-2.16-1.35Z" style="fill:#43CEA2"></path><path d="M323.88,405.84a2.92,2.92,0,0,1-1.89-.48,1,1,0,0,1-.33-.9A.61.61,0,0,1,322,404c.95-.52,4,1.06,4.4,1.25a.18.18,0,0,1,.1.19.21.21,0,0,1-.15.15A13.32,13.32,0,0,1,323.88,405.84Zm-1.39-1.61a.66.66,0,0,0-.34.07.22.22,0,0,0-.12.2.69.69,0,0,0,.21.59c.47.42,1.75.49,3.47.21A10.06,10.06,0,0,0,322.49,404.23Z" style="fill:#43CEA2"></path><path d="M326.28,405.56h-.07c-.93-.42-2.76-2.1-2.61-3,0-.21.18-.47.69-.52a1.29,1.29,0,0,1,1,.31c1,.82,1.16,2.91,1.17,3a.21.21,0,0,1-.08.17A.2.2,0,0,1,326.28,405.56Zm-1.85-3.14h-.11c-.33,0-.35.17-.36.21-.09.53,1.16,1.85,2.1,2.42a4.24,4.24,0,0,0-1-2.39A1,1,0,0,0,324.43,402.42Z" style="fill:#43CEA2"></path><path d="M324.36,157.42l-1.41-.68S323.51,158,324.36,157.42Z" style="fill:#263238"></path><path d="M345.31,227.88l1,2.75c.13.22-.11.46-.48.48l-32.36,2.36c-.28,0-.53-.11-.56-.28l-.49-2.8c0-.19.2-.37.51-.4l31.85-2.31A.54.54,0,0,1,345.31,227.88Z" style="fill:#43CEA2"></path><path d="M345.31,227.88l1,2.75c.13.22-.11.46-.48.48l-32.36,2.36c-.28,0-.53-.11-.56-.28l-.49-2.8c0-.19.2-.37.51-.4l31.85-2.31A.54.54,0,0,1,345.31,227.88Z" style="opacity:0.30000000000000004"></path><path d="M321.21,229.76c1.28-.81,4.57-1,4.89,1.07s-3.23,2.23-4.51,1.7c-.44-.18-.63.53-.19.71,1.79.75,5.86.3,5.44-2.51-.4-2.64-4.26-2.71-6-1.61-.4.25,0,.89.38.64Z" style="fill:#263238"></path><path d="M321.21,229.76c1.28-.81,4.57-1,4.89,1.07s-3.23,2.23-4.51,1.7c-.44-.18-.63.53-.19.71,1.79.75,5.86.3,5.44-2.51-.4-2.64-4.26-2.71-6-1.61-.4.25,0,.89.38.64Z" style="fill:#fff;opacity:0.7000000000000001"></path><path d="M334.21,181.11s-5.31,11.34-4.82,35.14,21.5,66.45,23.47,84.67c0,0,9.84-5.75,9.84-2S376,297.63,376,297.63s-22-33.47-23.31-47.09a69.44,69.44,0,0,0-7.37-24.49s-2.79-18.62,3.44-43.75C348.75,182.3,348.39,180.93,334.21,181.11Z" style="fill:#43CEA2"></path><path d="M319.08,182.37s-6.48,5.32-4.57,35.6,2.3,61.37-.35,81.88c0,0-8.5-1.64-8.78,3.28,0,0,8.75-42.92,6.13-69.66s-8.85-39.46-5.42-48.2Z" style="fill:#43CEA2"></path><path d="M344.83,209a136,136,0,0,1,1.66-15.69c-.07-2-.13-3.34-.13-3.34l-2.53-1.48-1.85,3s-.1,5,2.85,17.53Z" style="opacity:0.2"></path><path d="M386.29,221.94l-6.44,3.55c-3.44-1.8-6.9-3.6-10.24-5.45-1.85-1-3.66-2.08-5.36-3.16a26.57,26.57,0,0,1-2.31-1.66,7.38,7.38,0,0,1-.84-.77l-.73-.91A41.73,41.73,0,0,1,355,203.17c-.71-1.89-1.28-3.85-1.85-5.82-.28-1-.54-2-.77-3s-.47-2-.64-2.9l-8.39,1.41c.21,1.27.42,2.32.7,3.46s.55,2.22.86,3.32a65.18,65.18,0,0,0,2.24,6.52,49.48,49.48,0,0,0,3,6.33,35.64,35.64,0,0,0,4.17,5.94,20.5,20.5,0,0,0,1.44,1.51,15.74,15.74,0,0,0,1.67,1.29,34.25,34.25,0,0,0,3.15,1.85c2.07,1.07,4.14,1.94,6.2,2.78a113.07,113.07,0,0,0,12.61,4.1l0-.08a10.75,10.75,0,0,0,5.26-.24l6.35-.29,1.63-6.42Z" style="fill:#b55b52"></path><path d="M343.39,183.35c1.45-1.21,5.61-4.11,7.33,1.8s5.48,24.51,11.45,29.29,15.14,8.78,15.14,8.78l-2.14,6.46s-13.29-3-20.75-10.07-11.74-24.94-11.74-24.94S340.07,186.1,343.39,183.35Z" style="fill:#43CEA2"></path><path d="M316.91,148.48s-3.63-8.77,5.87-10.91C322.78,137.57,317.36,140.41,316.91,148.48Z" style="fill:#263238"></path><path d="M320.43,149.5s-4.3,3.25,2.84,6.7C323.27,156.2,319.58,153.69,320.43,149.5Z" style="fill:#263238"></path><polygon points="335.32 183.02 335.96 192 333.66 194.96 338.58 193.6 330.73 220.43 336.62 195.32 331.35 196.23 334.65 191.49 335.32 183.02" style="fill:#fff;opacity:0.7000000000000001"></polygon><polygon points="315.69 185.23 312.08 190.16 312.8 194.67 309.45 193.11 313.34 219.53 310.97 194.96 313.96 196.23 313.06 190.52 315.69 185.23" style="fill:#fff;opacity:0.7000000000000001"></polygon><path d="M389,224.5c-4.17,0-7.55,4-7.55,8.92s3.38,8.93,7.55,8.93,7.54-4,7.54-8.93S393.17,224.5,389,224.5Zm0,16.3c-3.45,0-6.24-3.3-6.24-7.38s2.79-7.37,6.24-7.37,6.23,3.3,6.23,7.37S392.44,240.8,389,240.8Z" style="fill:#263238"></path><path d="M389,224.5c-4.17,0-7.55,4-7.55,8.92s3.38,8.93,7.55,8.93,7.54-4,7.54-8.93S393.17,224.5,389,224.5Zm0,16.3c-3.45,0-6.24-3.3-6.24-7.38s2.79-7.37,6.24-7.37,6.23,3.3,6.23,7.37S392.44,240.8,389,240.8Z" style="fill:#fff;opacity:0.30000000000000004"></path><path d="M389,242.35c4.17,0,7.54-4,7.54-8.93a9.69,9.69,0,0,0-.09-1.33,2.46,2.46,0,0,0-.72-.11h-.62a8.57,8.57,0,0,1,.12,1.44c0,4.08-2.79,7.38-6.23,7.38s-6.24-3.3-6.24-7.38a8.57,8.57,0,0,1,.12-1.44h-.35a2.78,2.78,0,0,0-1,.19,10.36,10.36,0,0,0-.08,1.25C381.45,238.35,384.83,242.35,389,242.35Z" style="opacity:0.2"></path><path d="M395.73,233.46h-13.2a2.79,2.79,0,0,0-2.75,2.34l-2,12.83a2.77,2.77,0,0,0,2.75,3.22h17.31a2.78,2.78,0,0,0,2.75-3.22l-2.06-12.83A2.78,2.78,0,0,0,395.73,233.46Z" style="fill:#263238"></path><path d="M395.73,233.46h-13.2a2.79,2.79,0,0,0-2.75,2.34l-2,12.83a2.77,2.77,0,0,0,2.75,3.22h17.31a2.78,2.78,0,0,0,2.75-3.22l-2.06-12.83A2.78,2.78,0,0,0,395.73,233.46Z" style="fill:#263238"></path><path d="M397.73,234.32a2.45,2.45,0,0,1,0,.27c0,2.51-3.86,4.55-8.62,4.55s-8.62-2-8.62-4.55a2.45,2.45,0,0,1,0-.27,2.78,2.78,0,0,0-.73,1.41c1,2.24,4.78,3.91,9.33,3.91s8.35-1.67,9.33-3.91A2.7,2.7,0,0,0,397.73,234.32Z" style="fill:#43CEA2"></path><path d="M389.13,242.35h0a1,1,0,0,1-1-1v-3.94a1,1,0,0,1,1-1h0a1,1,0,0,1,1,1v3.94A1,1,0,0,1,389.13,242.35Z" style="fill:#263238"></path><path d="M389.13,242.35h0a1,1,0,0,1-1-1v-3.94a1,1,0,0,1,1-1h0a1,1,0,0,1,1,1v3.94A1,1,0,0,1,389.13,242.35Z" style="fill:#fff;opacity:0.30000000000000004"></path><path d="M314.72,156.23a.91.91,0,0,1,.79-.75,5.21,5.21,0,0,1,4.14,1.52l.83.13s1.35-1.12,6.1.25a1,1,0,0,1,.68,1.08l-.18.95,8.48,5-.32.93-8.3-5.07s-5.62,6.6-6.82-2.07l-.65-.09s-1.51,3.52-3.59,2.87C314.26,160.52,314.53,157.53,314.72,156.23Z" style="fill:#263238"></path><path d="M335.93,167.57A5.19,5.19,0,0,1,332.8,170c-1.76.44-2.59-1.13-2.07-2.76.46-1.47,1.94-3.48,3.68-3.2A2.31,2.31,0,0,1,335.93,167.57Z" style="fill:#b55b52"></path><path d="M317.61,160.66l-.73-5.12a4.91,4.91,0,0,0-1.28-.07l.81,5.62A2,2,0,0,0,317.61,160.66Z" style="fill:#fff;opacity:0.2"></path><path d="M324.48,162.31l-.8-5.54a9.3,9.3,0,0,0-1.7-.05l.86,6A3.16,3.16,0,0,0,324.48,162.31Z" style="fill:#fff;opacity:0.2"></path></g><g id="freepik--character-1--inject-1"><path d="M265.07,172.9l-6.52,2.92-2.19,7c-1.41,1.7-2.87,3.44-4.37,5.06a71.79,71.79,0,0,1-5.13,5.18,23.68,23.68,0,0,1-5.2,3.75,3.61,3.61,0,0,1-1.72.45c-.11,0-.09-.07-.05-.08l.05,0-.57-.39c-3.24-2.31-6-5.92-8.29-9.92a67.09,67.09,0,0,1-3.12-6.3c-.47-1.08-.92-2.18-1.33-3.29l-.6-1.66c-.18-.52-.4-1.15-.52-1.55L214.91,177c.23.84.42,1.44.64,2.14s.45,1.33.69,2c.49,1.31,1,2.6,1.56,3.88a61,61,0,0,0,3.91,7.46,44.91,44.91,0,0,0,5.23,6.94,30.7,30.7,0,0,0,7.08,5.83l1.08.61a9.38,9.38,0,0,0,1.82.74,9.66,9.66,0,0,0,3.77.34,13.28,13.28,0,0,0,5.54-2,29.51,29.51,0,0,0,6.67-6.08,65.93,65.93,0,0,0,8.44-13.4,24.33,24.33,0,0,0,3.4-5.08l3.81-3.18Z" style="fill:#ce7a63"></path><polygon points="238.58 387.67 242.68 403.2 249.27 401.06 245.17 385.53 238.58 387.67" style="fill:#ce7a63"></polygon><path d="M236.19,190.33l-10.94,8.16s-.42-.46-1.12-1.26L222.22,195c-4.25-5.18-10.47-14.64-10.52-19.27-.08-6.91,7.09-7.92,15.14-.86,3.47,3.05,5.28,8.1,7,11.24.58,1,1.07,1.94,1.45,2.64C235.89,189.72,236.19,190.33,236.19,190.33Z" style="fill:#263238"></path><path d="M211.63,176.48c2.47-1.64,4.28,2.59,9.16,6.17,2.18,1.59,7,12,6.57,14.27l-2.11,1.58S211.57,183.36,211.63,176.48Z" style="opacity:0.5"></path><path d="M249.36,400.19l-7.4,2.4a.49.49,0,0,0-.34.61l1.54,6a1.24,1.24,0,0,0,1.54.8c2.56-.88,3.74-1.43,7-2.49,2-.65,10.59-3.2,13.35-4.1s1.8-3.61.55-3.47c-5.62.59-12.63,1.17-15,.32A1.91,1.91,0,0,0,249.36,400.19Z" style="fill:#263238"></path><polygon points="238.58 387.68 245.17 385.54 247.28 393.54 240.69 395.68 238.58 387.68" style="opacity:0.2"></polygon><path d="M222.53,230.42s9.35,56.37,12.12,76c3,21.54,15,84.52,15,84.52l-12.22,3.38s-17.47-61-22.42-82c-5.37-22.72-17.19-82-17.19-82Z" style="fill:#43CEA2"></path><path d="M207.51,253.54c4.79,12,5.33,32.26,3.39,40.58-2.94-13.67-6.3-30-8.89-42.73C202.94,248.13,204.61,246.27,207.51,253.54Z" style="opacity:0.30000000000000004"></path><polygon points="237.08 394.6 250.17 390.99 249.92 385.66 235.18 390.76 237.08 394.6" style="fill:#43CEA2"></polygon><polygon points="237.08 394.6 250.17 390.99 249.92 385.66 235.18 390.76 237.08 394.6" style="fill:#fff;opacity:0.30000000000000004"></polygon><path d="M252.07,400.58a8.25,8.25,0,0,1-1.83.33.15.15,0,0,1-.14-.25c.16-.22,1.61-2.1,2.52-2a.6.6,0,0,1,.5.32.88.88,0,0,1,.07.89A1.83,1.83,0,0,1,252.07,400.58Zm-1.48,0c1.25-.14,2.11-.46,2.32-.87a.6.6,0,0,0-.07-.58.28.28,0,0,0-.24-.16C252.11,398.91,251.2,399.82,250.59,400.55Z" style="fill:#43CEA2"></path><path d="M250.28,400.91h-.08a.14.14,0,0,1-.12-.09c0-.08-.8-1.93-.34-2.79a.79.79,0,0,1,.58-.42.63.63,0,0,1,.71.28c.38.67-.15,2.37-.68,3Zm0-3a.55.55,0,0,0-.29.25,3.61,3.61,0,0,0,.25,2.23,3.27,3.27,0,0,0,.48-2.37c-.05-.08-.14-.17-.37-.12Z" style="fill:#43CEA2"></path><polygon points="190.82 406.23 197.74 406.23 198.64 390.19 191.72 390.19 190.82 406.23" style="fill:#ce7a63"></polygon><path d="M198.11,405.43h-7.79a.5.5,0,0,0-.51.47l-.38,6.16a1.23,1.23,0,0,0,1.22,1.23c2.7,0,4-.2,7.42-.2,2.11,0,11.06.21,14,.21s2.83-2.87,1.59-3.13c-5.52-1.17-12.37-2.78-14.32-4.31A1.93,1.93,0,0,0,198.11,405.43Z" style="fill:#263238"></path><polygon points="191.71 390.2 198.64 390.2 198.18 398.47 191.25 398.47 191.71 390.2" style="opacity:0.2"></polygon><path d="M209,230.06s.66,52.93-.46,72.76c-1.23,21.71-7.39,93.65-7.39,93.65H188.46s.38-70.18-.38-91.68c-.83-23.33-3-74.73-3-74.73Z" style="fill:#43CEA2"></path><polygon points="187.95 396.47 201.66 396.47 202.42 391.66 187.29 392.41 187.95 396.47" style="fill:#43CEA2"></polygon><polygon points="187.95 396.47 201.66 396.47 202.42 391.66 187.29 392.41 187.95 396.47" style="fill:#fff;opacity:0.30000000000000004"></polygon><path d="M200.56,406.64a8.44,8.44,0,0,1-1.85-.25.15.15,0,0,1-.12-.13.17.17,0,0,1,.07-.16c.22-.15,2.18-1.49,3-1.16a.61.61,0,0,1,.37.46.87.87,0,0,1-.2.87A1.87,1.87,0,0,1,200.56,406.64Zm-1.4-.48c1.24.24,2.15.2,2.47-.12a.57.57,0,0,0,.12-.57.31.31,0,0,0-.18-.23C201.11,405.06,200,405.64,199.16,406.16Z" style="fill:#43CEA2"></path><path d="M198.75,406.39h-.07a.2.2,0,0,1-.09-.13c0-.09-.16-2.08.54-2.75a.82.82,0,0,1,.68-.23.62.62,0,0,1,.59.49c.16.76-.88,2.2-1.57,2.61A.11.11,0,0,1,198.75,406.39Zm.95-2.8a.46.46,0,0,0-.35.14,3.56,3.56,0,0,0-.45,2.2c.6-.51,1.29-1.61,1.18-2.1,0-.1-.07-.21-.31-.24Z" style="fill:#43CEA2"></path><path d="M222.53,230.42h-37c-.27-3.31.5-14.07-.07-27.78a175.4,175.4,0,0,0-3.68-30.21l-.51-2.23s1.87-.38,4.56-.78c2.24-.32,5-.66,7.79-.79a140,140,0,0,1,15.74,0c2.42.22,4.78.63,6.67,1,2.41.49,3.83.9,3.83.9S228.94,191.47,222.53,230.42Z" style="fill:#263238"></path><path d="M202.94,172.91c-8.81.05-10-4.24-10-4.24,3.43-3.38,2.11-12.62.94-17.7l4.22,3.5,5.73,4.76a17.41,17.41,0,0,0-.36,2.32c-.31,3.11.49,5.94,5.07,7,0,0,5.44,3.81-2.63,4.25C205.19,172.86,203.69,172.9,202.94,172.91Z" style="fill:#ce7a63"></path><path d="M203.86,159.23a17.41,17.41,0,0,0-.36,2.32c-2.14-.43-5-2.71-5.3-4.9a9.75,9.75,0,0,1-.07-2.18Z" style="opacity:0.2"></path><path d="M192.18,143.68c1.46,6.73,2,10.74,5.95,13.81a9,9,0,0,0,14.5-6.45c.52-6.27-2-16.23-9-18.14A9.06,9.06,0,0,0,192.18,143.68Z" style="fill:#ce7a63"></path><path d="M202.8,144.35c.09.55.45,1,.81.92s.59-.53.5-1.08-.44-1-.81-.92S202.72,143.79,202.8,144.35Z" style="fill:#263238"></path><path d="M209.07,143.6c.09.55.45,1,.81.92s.59-.52.5-1.08-.44-1-.81-.92S209,143.05,209.07,143.6Z" style="fill:#263238"></path><path d="M207.12,144.11a20.7,20.7,0,0,0,3.38,4.41,3.16,3.16,0,0,1-2.57.81Z" style="fill:#ba4d3c"></path><path d="M205.89,151.09a4.8,4.8,0,0,1-3.49-1.44.16.16,0,1,1,.25-.21,4.58,4.58,0,0,0,3.85,1.28.17.17,0,0,1,.18.15.16.16,0,0,1-.14.18A4.93,4.93,0,0,1,205.89,151.09Z" style="fill:#263238"></path><path d="M200.55,142.56a.32.32,0,0,1-.16,0,.34.34,0,0,1-.13-.45,3.16,3.16,0,0,1,2.46-1.66.32.32,0,0,1,.34.31.33.33,0,0,1-.31.35,2.47,2.47,0,0,0-1.91,1.32A.32.32,0,0,1,200.55,142.56Z" style="fill:#263238"></path><path d="M211.44,141.13a.35.35,0,0,1-.28-.14,2.77,2.77,0,0,0-2.07-1.26.31.31,0,0,1-.32-.33.32.32,0,0,1,.32-.32h0a3.41,3.41,0,0,1,2.62,1.54.34.34,0,0,1-.09.46A.41.41,0,0,1,211.44,141.13Z" style="fill:#263238"></path><path d="M193.91,148.32s3.72-.74,2.23-5.06a3.51,3.51,0,0,0-.23-4.69s3.39,1,5.07-1.37c0,0,2.93,1.9,4.68-.67,0,0,6.07.71,6-4.83s-4.95-3.63-4.95-3.63.08-4.25-3.22-4.87-4.8,3-4.8,3a5.15,5.15,0,0,0-4.75-2.38c-3.25.25-2.68,3.63-2.68,3.63s-3.63-1-5.66,1a3.36,3.36,0,0,0-.79,4.1s-3.11,1-3.55,4a3.47,3.47,0,0,0,1.93,3.88s-2,2.81-.57,4.86a3.12,3.12,0,0,0,3.36,1.46s0,2.15,2.58,4.24S193.91,152.57,193.91,148.32Z" style="fill:#263238"></path><path d="M190.62,150.71a7.46,7.46,0,0,0,4.28,2.54c2.12.36,2.6-1.61,1.52-3.51-1-1.71-3.25-4-5.14-3.46S189.25,149.05,190.62,150.71Z" style="fill:#ce7a63"></path><polygon points="272.39 186.93 262.63 186.93 261.27 164.84 273.75 164.84 272.39 186.93" style="fill:#43CEA2"></polygon><polygon points="272.39 186.93 262.63 186.93 261.27 164.84 273.75 164.84 272.39 186.93" style="fill:#fff;opacity:0.4"></polygon><polygon points="275 166.13 260.02 166.13 260.69 163.09 274.33 163.09 275 166.13" style="fill:#263238"></polygon><polygon points="272.78 180.67 273.42 170.2 261.6 170.2 262.24 180.67 272.78 180.67" style="fill:#fff;opacity:0.7000000000000001"></polygon><circle cx="267.51" cy="175.21" r="3.1" style="fill:#43CEA2"></circle><path d="M191.23,168.59l2.43-.77s.06,6.06,6.5,17.5h-2.07S192.92,179.29,191.23,168.59Z" style="fill:#43CEA2"></path><path d="M207.93,168.29l3.21.42s4.39,3.33,5.39,15.53h-2S213.3,172.47,207.93,168.29Z" style="fill:#43CEA2"></path><path d="M191.23,168.59l2.43-.77s.06,6.06,6.5,17.5h-2.07S192.92,179.29,191.23,168.59Z" style="fill:#fff;opacity:0.7000000000000001"></path><path d="M207.93,168.29l3.21.42s4.39,3.33,5.39,15.53h-2S213.3,172.47,207.93,168.29Z" style="fill:#fff;opacity:0.7000000000000001"></path><path d="M185.42,202.65a175.4,175.4,0,0,0-3.68-30.21c2.48-.22,6.71,0,7.41,4C189.9,180.76,189,190.87,185.42,202.65Z" style="opacity:0.5"></path><path d="M214.53,184.24h2c0-.48-.09-.92-.14-1.37l-2,.06C214.48,183.74,214.53,184.24,214.53,184.24Z" style="opacity:0.2"></path><path d="M198.09,185.32h2.07q-.56-1-1-1.92l-2.35.07A20.67,20.67,0,0,0,198.09,185.32Z" style="opacity:0.2"></path><path d="M197.09,184.3l19.9-.74a106.57,106.57,0,0,1,7.82,19.09s1.17,15.45-2.28,27.77l19.07,104s-17.54-3.67-32.41,4.33-23-1.33-23-1.33,1.72-94.83,1.24-109.46Z" style="fill:#43CEA2"></path><path d="M197.09,184.3l19.9-.74a106.57,106.57,0,0,1,7.82,19.09s1.17,15.45-2.28,27.77l19.07,104s-17.54-3.67-32.41,4.33-23-1.33-23-1.33,1.72-94.83,1.24-109.46Z" style="fill:#fff;opacity:0.7000000000000001"></path><path d="M202,195.32c.4,1.64,1.67,2.74,2.84,2.46a.94.94,0,0,0,.15-.06,5.54,5.54,0,0,0,2.14,2.52l-.41,1.37h6.61l-.41-1.37a5.47,5.47,0,0,0,2.57-4.63v-4.23H204.6V192a1.72,1.72,0,0,0-1.17-.16C202.26,192.11,201.64,193.67,202,195.32Zm1.62-2.55a1.24,1.24,0,0,1,.94.19v2.65a5.23,5.23,0,0,0,.14,1.19l-.09,0c-.8.19-1.66-.56-1.94-1.69S202.86,193,203.66,192.77Z" style="fill:#43CEA2"></path><path d="M209.88,195.92a1.11,1.11,0,0,1,.54.71.44.44,0,0,0,.49.27h0a.44.44,0,0,0,.34-.58,2,2,0,0,0-1.08-1.24,4.71,4.71,0,0,1-1.29-1.21,2.4,2.4,0,0,1,2.33,1c.83,1,1,2.25.32,2.79s-1.86.19-2.69-.81a2.44,2.44,0,0,1-.61-2.39A5.09,5.09,0,0,0,209.88,195.92Z" style="fill:#263238"></path><path d="M190.94,223.61l-5.87,1c-1.92-3.45-3.81-7-5.42-10.43a46.15,46.15,0,0,1-2.33-5.9,12.71,12.71,0,0,1-.53-2.56,3.73,3.73,0,0,1,0-.83c0-.07,0-.14.06-.13s0,0,0,0l.06-.19.11-.37a62.12,62.12,0,0,1,2.1-6.05c.83-2,1.75-4,2.7-6s2-4,3.07-6,2.21-4,3.25-5.77l-9.28-5.9c-.74,1.14-1.35,2.13-2,3.22s-1.21,2.13-1.79,3.22q-1.73,3.24-3.2,6.63A69,69,0,0,0,167.29,202l-.1.48,0,.24-.07.4a11.65,11.65,0,0,0-.12,1.61,14.28,14.28,0,0,0,.29,2.68,23,23,0,0,0,1.39,4.2,44.12,44.12,0,0,0,3.76,6.76,77.52,77.52,0,0,0,9.3,11.31h0c1.24,1.94,5.69,2,5.69,2l5.44,2.47,3.24-6.45Z" style="fill:#ce7a63"></path><path d="M190.42,182.81a129.44,129.44,0,0,1-6,14.06c-.49,1-.95,1.94-1.33,2.68-.65,1.3-1.06,2.09-1.06,2.09l-14-7.78.49-1.58c.25-.74.56-1.72,1-2.85,2.33-6.66,7.11-18.55,11.79-19.23C188.22,169.18,193.26,174.41,190.42,182.81Z" style="fill:#263238"></path><path d="M197.78,230.42s9.58,2.58,22.58.08C220.36,230.5,208.94,238.46,197.78,230.42Z" style="opacity:0.2"></path><path d="M219.5,239s-1.78,80.25-12.52,83.25C207,322.25,224.27,330.75,219.5,239Z" style="opacity:0.2"></path></g><g id="freepik--Counter--inject-1"><polygon points="98.67 265.02 53.38 265.02 53.38 413.46 98.67 413.46 278.56 413.46 278.56 265.02 98.67 265.02" style="fill:#43CEA2"></polygon><rect x="98.67" y="265.03" width="179.89" height="148.43" style="opacity:0.2"></rect><rect x="53.38" y="265.03" width="45.29" height="148.43" style="opacity:0.2"></rect><rect x="98.67" y="265.03" width="179.89" height="148.43" style="fill:#43CEA2"></rect><rect x="49.05" y="256.73" width="52.95" height="8.29" style="fill:#263238"></rect><rect x="102" y="256.73" width="180.88" height="8.29" style="fill:#263238"></rect><rect x="102" y="256.73" width="180.88" height="8.29" style="fill:#fff;opacity:0.30000000000000004"></rect><path d="M178.58,403.36h-64.2v-.75a4.87,4.87,0,0,0-4.87-4.86h-.75v-117h.75a4.88,4.88,0,0,0,4.87-4.87v-.75h64.2v.75a4.87,4.87,0,0,0,4.86,4.87h.75v117h-.75a4.87,4.87,0,0,0-4.86,4.86Zm-62.75-1.5h61.29a6.37,6.37,0,0,1,5.57-5.57V282.19a6.37,6.37,0,0,1-5.57-5.57H115.83a6.37,6.37,0,0,1-5.57,5.57v114.1A6.37,6.37,0,0,1,115.83,401.86Z" style="fill:#fff;opacity:0.9"></path><path d="M262.84,403.36H198.65v-.75a4.87,4.87,0,0,0-4.87-4.86H193v-117h.75a4.88,4.88,0,0,0,4.87-4.87v-.75h64.19v.75a4.88,4.88,0,0,0,4.87,4.87h.75v117h-.75a4.87,4.87,0,0,0-4.87,4.86Zm-62.74-1.5h61.29a6.37,6.37,0,0,1,5.57-5.57V282.19a6.37,6.37,0,0,1-5.57-5.57H200.1a6.37,6.37,0,0,1-5.57,5.57v114.1A6.37,6.37,0,0,1,200.1,401.86Z" style="fill:#fff;opacity:0.9"></path><rect x="53.38" y="265.03" width="45.29" height="6.38" style="fill:#263238;opacity:0.2"></rect><rect x="98.67" y="265.03" width="179.89" height="6.38" style="fill:#263238;opacity:0.30000000000000004"></rect></g><g id="freepik--cashier-machine--inject-1"><rect x="237.46" y="221.09" width="2.26" height="16.25" transform="translate(477.17 458.44) rotate(180)" style="fill:#263238"></rect><rect x="237.46" y="221.09" width="2.26" height="16.25" transform="translate(477.17 458.44) rotate(180)" style="fill:#fff;opacity:0.5"></rect><path d="M226.52,218.34h4.38v7.76h-4.38a2,2,0,0,1-2-2v-3.83A2,2,0,0,1,226.52,218.34Z" style="fill:#43CEA2"></path><polygon points="215.13 244.36 221.33 235.41 227.15 235.41 227.15 256.73 223.46 256.73 219.78 256.73 198.84 256.73 198.84 244.36 215.13 244.36" style="fill:#263238"></polygon><polygon points="215.13 244.36 221.33 235.41 227.15 235.41 227.15 256.73 223.46 256.73 219.78 256.73 198.84 256.73 198.84 244.36 215.13 244.36" style="fill:#fff;opacity:0.5"></polygon><rect x="227.15" y="235.41" width="22.88" height="21.33" transform="translate(477.17 492.14) rotate(180)" style="fill:#263238"></rect><rect x="227.15" y="235.41" width="22.88" height="21.33" transform="translate(477.17 492.14) rotate(180)" style="fill:#fff;opacity:0.7000000000000001"></rect><rect x="227.15" y="218.34" width="22.88" height="7.76" rx="1.26" transform="translate(477.17 444.44) rotate(180)" style="fill:#263238"></rect></g><g id="freepik--coffee-machine--inject-1"><polygon points="95.69 257.29 92.68 257.29 91.55 251.6 96.82 251.6 95.69 257.29" style="fill:#263238"></polygon><polygon points="135.25 257.29 132.24 257.29 131.11 251.6 136.38 251.6 135.25 257.29" style="fill:#263238"></polygon><polygon points="83.16 257.29 80.15 257.29 79.02 251.6 84.29 251.6 83.16 257.29" style="fill:#263238"></polygon><polygon points="122.72 257.29 119.71 257.29 118.58 251.6 123.86 251.6 122.72 257.29" style="fill:#263238"></polygon><rect x="71.77" y="185.33" width="59.34" height="68.03" rx="6.14" style="fill:#43CEA2"></rect><rect x="71.77" y="185.33" width="59.34" height="68.03" rx="6.14" style="opacity:0.2"></rect><rect x="84.29" y="185.33" width="59.34" height="68.03" rx="6.14" style="fill:#43CEA2"></rect><rect x="84.29" y="185.33" width="59.34" height="68.03" rx="6.14" style="fill:#fff;opacity:0.5"></rect><path d="M143.64,199.74v-8.53a5.88,5.88,0,0,0-5.88-5.88H90.17a5.88,5.88,0,0,0-5.88,5.88v8.53Z" style="fill:#43CEA2"></path><path d="M84.29,246.86v.62a5.88,5.88,0,0,0,5.88,5.88h47.59a5.88,5.88,0,0,0,5.88-5.88v-.62Z" style="fill:#43CEA2"></path><path d="M98.14,193.24a4,4,0,1,1-4-4A4,4,0,0,1,98.14,193.24Z" style="fill:#263238"></path><circle cx="104.07" cy="193.24" r="1.98" style="fill:#263238"></circle><path d="M114,193.24a2,2,0,1,1-2-2A2,2,0,0,1,114,193.24Z" style="fill:#263238"></path><path d="M98.14,193.24a4,4,0,1,1-4-4A4,4,0,0,1,98.14,193.24Z" style="fill:#fff;opacity:0.7000000000000001"></path><circle cx="104.07" cy="193.24" r="1.98" style="fill:#fff;opacity:0.7000000000000001"></circle><path d="M114,193.24a2,2,0,1,1-2-2A2,2,0,0,1,114,193.24Z" style="fill:#fff;opacity:0.7000000000000001"></path><path d="M115.14,229a3.13,3.13,0,0,0-2.13.3v-1.12H93.09v7.7a9.93,9.93,0,0,0,4.69,8.44l-.76,2.5h12.06l-.76-2.5a9.9,9.9,0,0,0,3.91-4.59,1.53,1.53,0,0,0,.27.11c2.12.52,4.43-1.49,5.16-4.48S117.26,229.56,115.14,229Zm1.3,6.06c-.49,2-2.07,3.41-3.52,3.06a1.15,1.15,0,0,1-.17-.06,9.85,9.85,0,0,0,.26-2.18v-4.81a2.18,2.18,0,0,1,1.71-.35C116.17,231.11,116.94,233.06,116.44,235.1Z" style="fill:#43CEA2"></path><path d="M115.14,229a3.13,3.13,0,0,0-2.13.3v-1.12H93.09v7.7a9.93,9.93,0,0,0,4.69,8.44l-.76,2.5h12.06l-.76-2.5a9.9,9.9,0,0,0,3.91-4.59,1.53,1.53,0,0,0,.27.11c2.12.52,4.43-1.49,5.16-4.48S117.26,229.56,115.14,229Zm1.3,6.06c-.49,2-2.07,3.41-3.52,3.06a1.15,1.15,0,0,1-.17-.06,9.85,9.85,0,0,0,.26-2.18v-4.81a2.18,2.18,0,0,1,1.71-.35C116.17,231.11,116.94,233.06,116.44,235.1Z" style="fill:#fff;opacity:0.9"></path><rect x="96.62" y="207.68" width="12.86" height="7.57" style="fill:#263238"></rect><rect x="96.62" y="207.68" width="12.86" height="7.57" style="fill:#fff;opacity:0.5"></rect><polygon points="133.43 215.9 130 213.56 128.84 214.71 131.19 218.14 133.43 215.9" style="fill:#43CEA2"></polygon><rect x="93.09" y="199.74" width="19.93" height="11.73" style="fill:#263238"></rect><path d="M136.33,214.19h2.45a.53.53,0,0,1,.53.53V229a1.36,1.36,0,0,1-1.36,1.36h-.77a1.36,1.36,0,0,1-1.36-1.36V214.71a.53.53,0,0,1,.53-.53Z" transform="translate(-116.89 162.39) rotate(-45.01)" style="fill:#263238"></path><path d="M126.42,210.76h4.69a0,0,0,0,1,0,0v3.45a2.08,2.08,0,0,1-2.08,2.08h-.54a2.08,2.08,0,0,1-2.08-2.08v-3.45A0,0,0,0,1,126.42,210.76Z" style="fill:#263238"></path><path d="M126.42,210.76h4.69a0,0,0,0,1,0,0v3.45a2.08,2.08,0,0,1-2.08,2.08h-.54a2.08,2.08,0,0,1-2.08-2.08v-3.45A0,0,0,0,1,126.42,210.76Z" style="fill:#fff;opacity:0.5"></path><rect x="123.78" y="199.74" width="9.97" height="11.73" style="fill:#263238"></rect></g></svg>