<svg xmlns="http://www.w3.org/2000/svg" viewBox="0 0 500 500"><g id="freepik--Table--inject-9"><path d="M263.83,286.68c.28,30.06.6,59,.6,59a1.09,1.09,0,0,0,.64.9,3.45,3.45,0,0,0,3.1,0,1.09,1.09,0,0,0,.63-.9s.32-28.93.6-59C267.54,286.76,265.68,286.76,263.83,286.68Z" style="fill:#43CEA2"></path><path d="M227.31,324a1.12,1.12,0,0,0,.65.9,3.43,3.43,0,0,0,3.09,0,1.09,1.09,0,0,0,.64-.9s1.39-20.67,3.39-45.24a33.76,33.76,0,0,1-5.24-4C228.23,301.06,227.31,324,227.31,324Z" style="fill:#43CEA2"></path><path d="M301.54,324a1.09,1.09,0,0,0,.63.9,3.45,3.45,0,0,0,3.1,0,1.12,1.12,0,0,0,.65-.9s-.92-22.86-2.53-49.09a32.77,32.77,0,0,1-5.24,4C300.15,303.38,301.54,324,301.54,324Z" style="fill:#43CEA2"></path><path d="M263.83,286.68c.28,30.06.6,59,.6,59a1.09,1.09,0,0,0,.64.9,3.45,3.45,0,0,0,3.1,0,1.09,1.09,0,0,0,.63-.9s.32-28.93.6-59C267.54,286.76,265.68,286.76,263.83,286.68Z" style="opacity:0.30000000000000004"></path><path d="M227.31,324a1.12,1.12,0,0,0,.65.9,3.43,3.43,0,0,0,3.09,0,1.09,1.09,0,0,0,.64-.9s1.39-20.67,3.39-45.24a33.76,33.76,0,0,1-5.24-4C228.23,301.06,227.31,324,227.31,324Z" style="opacity:0.30000000000000004"></path><path d="M301.54,324a1.09,1.09,0,0,0,.63.9,3.45,3.45,0,0,0,3.1,0,1.12,1.12,0,0,0,.65-.9s-.92-22.86-2.53-49.09a32.77,32.77,0,0,1-5.24,4C300.15,303.38,301.54,324,301.54,324Z" style="opacity:0.30000000000000004"></path><path d="M309.77,256.89c0,6.4-4.14,12.79-12.54,17.67-16.8,9.77-44.12,9.77-61,0-8.46-4.89-12.71-11.28-12.74-17.68h0v4.86c0,4.52,2.16,9,6.38,13a33.76,33.76,0,0,0,5.24,4c.37.23.73.46,1.12.68,7.7,4.45,17.58,6.86,27.63,7.25,1.85.08,3.71.08,5.57,0,10.14-.36,20.1-2.78,27.83-7.27l.92-.57a32.77,32.77,0,0,0,5.24-4c4.28-4,6.41-8.58,6.38-13.15h0v-4.86Z" style="fill:#43CEA2"></path><path d="M309.77,256.89c0,6.4-4.14,12.79-12.54,17.67-16.8,9.77-44.12,9.77-61,0-8.46-4.89-12.71-11.28-12.74-17.68h0v4.86c0,4.52,2.16,9,6.38,13a33.76,33.76,0,0,0,5.24,4c.37.23.73.46,1.12.68,7.7,4.45,17.58,6.86,27.63,7.25,1.85.08,3.71.08,5.57,0,10.14-.36,20.1-2.78,27.83-7.27l.92-.57a32.77,32.77,0,0,0,5.24-4c4.28-4,6.41-8.58,6.38-13.15h0v-4.86Z" style="opacity:0.4"></path><path d="M236.2,274.57c16.91,9.76,44.23,9.76,61,0,8.4-4.88,12.58-11.27,12.54-17.67s-4.28-12.8-12.74-17.68c-16.91-9.76-44.23-9.76-61,0-8.4,4.88-12.58,11.28-12.54,17.68S227.74,269.68,236.2,274.57Z" style="fill:#43CEA2"></path><path d="M236.2,274.57c16.91,9.76,44.23,9.76,61,0,8.4-4.88,12.58-11.27,12.54-17.67s-4.28-12.8-12.74-17.68c-16.91-9.76-44.23-9.76-61,0-8.4,4.88-12.58,11.28-12.54,17.68S227.74,269.68,236.2,274.57Z" style="opacity:0.2"></path><g style="opacity:0.30000000000000004"><path d="M263.83,286.68q0,3,.06,6c1.81.07,3.64.08,5.45,0q0-3,.06-6C267.54,286.76,265.68,286.76,263.83,286.68Z"></path><path d="M229.84,274.77c-.11,1.92-.23,3.81-.34,5.69a32.05,32.05,0,0,0,5.12,4c.15-1.87.31-3.78.46-5.72A33.76,33.76,0,0,1,229.84,274.77Z"></path><path d="M303.39,274.9a32.77,32.77,0,0,1-5.24,4q.24,2.91.47,5.73a32.07,32.07,0,0,0,5.11-4C303.62,278.71,303.51,276.81,303.39,274.9Z"></path></g><path d="M280.22,223.39c-.66-.66-8.28,0-8.28,0s-7.62-.66-8.28,0c-2.81,2.8-8.55,15.29-8.55,23.68,0,2.49,1.67,5,5,6.89,6.59,3.81,17.25,3.81,23.8,0,3.27-1.9,4.9-4.4,4.89-6.89C288.77,238.68,283,226.19,280.22,223.39Z" style="fill:#e6e6e6"></path><path d="M284.68,237.58a4,4,0,0,1,.06.69c0,1.89-1.23,3.79-3.72,5.24-5,2.89-13.09,2.89-18.1,0-2.51-1.45-3.77-3.35-3.78-5.24a4.89,4.89,0,0,1,.05-.66,32.69,32.69,0,0,0-1.78,9.45c0,1.72,1.4,3.51,3.82,4.91A21.92,21.92,0,0,0,272,254.52h0A21.71,21.71,0,0,0,282.72,252c2.39-1.39,3.76-3.17,3.75-4.9A32.64,32.64,0,0,0,284.68,237.58Z" style="fill:#632828"></path><path d="M262.92,243.51c5,2.89,13.12,2.89,18.1,0,2.49-1.45,3.73-3.35,3.72-5.24a4,4,0,0,0-.06-.69c-.28-1.66-1.51-3.28-3.72-4.56-5-2.89-13.12-2.89-18.1,0-2.2,1.28-3.42,2.92-3.67,4.59a4.89,4.89,0,0,0-.05.66C259.15,240.16,260.41,242.06,262.92,243.51Z" style="fill:#804040"></path><path d="M280.22,223.39c-.66-.66-8.28,0-8.28,0s-7.62-.66-8.28,0c-2.81,2.8-8.55,15.29-8.55,23.68,0,2.49,1.67,5,5,6.89,6.59,3.81,17.25,3.81,23.8,0,3.27-1.9,4.9-4.4,4.89-6.89C288.77,238.68,283,226.19,280.22,223.39Z" style="fill:#fff;opacity:0.30000000000000004"></path><path d="M264.64,226.61a16.16,16.16,0,0,0,14.65,0c2-1.17,3-2.71,3-4.25s-1-3.07-3.05-4.24a16.16,16.16,0,0,0-14.65,0c-2,1.17-3,2.71-3,4.24S262.61,225.44,264.64,226.61Z" style="fill:#263238"></path><path d="M281.37,223.34a4.35,4.35,0,0,0,.32-.47c2.83-4.13,4.1-8.15,4.1-11.37l-33.24,0c0,2.5,7.48,10.72,11.18,13h0a8.79,8.79,0,0,0,.9.6,16.16,16.16,0,0,0,14.65,0,7.26,7.26,0,0,0,2-1.65h0Z" style="fill:#e6e6e6"></path><path d="M282.32,206.72c2.12,1.23,3.44,2.92,3.47,4.78,0,3.92-5.78,6.95-12.54,6.84a37,37,0,0,1-17.82-4.56c-.84-.49-1.68-1-2.49-1.61a.72.72,0,0,1,0-1.27c6.59-4.79,14.45-6.17,21.06-6.17A17,17,0,0,1,282.32,206.72Z" style="fill:#f0f0f0"></path><path d="M280.89,207.73c1.81,1,2.95,2.48,3,4.07s-1,2.93-2.85,4a15.57,15.57,0,0,1-7.59,1.81h-.33a34,34,0,0,1-16.62-4.25c-.82-.47-1.62-1-2.39-1.54C260.67,207,268.44,206,273.8,206A14.35,14.35,0,0,1,280.89,207.73Z" style="fill:#e0e0e0"></path><path d="M255.72,253.47c-6-3.44-15.58-3.44-21.5,0s-5.88,9,.07,12.46,15.58,3.43,21.5,0S261.68,256.91,255.72,253.47Z" style="fill:#f0f0f0"></path><path d="M255.72,252.51c-6-3.44-15.58-3.44-21.5,0s-5.88,9,.07,12.45,15.58,3.44,21.5,0S261.68,256,255.72,252.51Z" style="fill:#fafafa"></path><path d="M250,256.82a11,11,0,0,0-9.94,0c-2.74,1.59-2.73,4.17,0,5.76a11,11,0,0,0,9.95,0C252.74,261,252.72,258.41,250,256.82Z" style="fill:#ebebeb"></path><path d="M286.81,262.39c-6-3.44-15.58-3.44-21.5,0s-5.89,9,.07,12.46,15.58,3.43,21.5,0S292.76,265.83,286.81,262.39Z" style="fill:#f0f0f0"></path><path d="M286.81,261.43c-6-3.44-15.58-3.44-21.5,0s-5.89,9,.07,12.45,15.58,3.44,21.5,0S292.76,264.87,286.81,261.43Z" style="fill:#fafafa"></path><path d="M281.05,265.74a11,11,0,0,0-9.95,0c-2.73,1.59-2.72,4.17,0,5.76a11,11,0,0,0,9.95,0C283.82,269.91,283.81,267.33,281.05,265.74Z" style="fill:#ebebeb"></path></g><g id="freepik--character-2--inject-9"><path d="M348.68,282.84c-8.91,6.19-18.95,10.47-26.39,18.76-13.9,15.5-14.22,40.43-3.31,58.15s31.22,28.37,51.89,30.8c21.69,2.56,44.45-3.43,61.46-17.12s27.84-35.07,27.83-56.91S449,272.94,430.68,261C414,250.12,390,247,373.27,259.47c-8.47,6.3-14.11,15.59-22.55,21.9C350,281.88,349.36,282.36,348.68,282.84Z" style="fill:#43CEA2"></path><path d="M348.68,282.84c-8.91,6.19-18.95,10.47-26.39,18.76-13.9,15.5-14.22,40.43-3.31,58.15s31.22,28.37,51.89,30.8c21.69,2.56,44.45-3.43,61.46-17.12s27.84-35.07,27.83-56.91S449,272.94,430.68,261C414,250.12,390,247,373.27,259.47c-8.47,6.3-14.11,15.59-22.55,21.9C350,281.88,349.36,282.36,348.68,282.84Z" style="fill:#fff;opacity:0.2"></path><path d="M448.52,313.52a63.73,63.73,0,0,0-54.37-61.88,47.26,47.26,0,0,0-6.15,1,62.16,62.16,0,0,1,58.84,60.88c.4,20.33-9.54,41-26.59,55.42-13.37,11.26-31.12,18.73-50.63,21.42.42.06.83.12,1.25.16,1.75.21,3.52.36,5.28.45,17.33-3.36,33-10.51,45.18-20.75C438.76,355.55,448.93,334.35,448.52,313.52Z" style="fill:#fff"></path><path d="M352.31,373.62l.06-.44a23.43,23.43,0,0,1,19-19.54,74.16,74.16,0,0,0,24.34-9.32c5.32-3.22,10.35-7.16,16.32-8.91a26.59,26.59,0,0,1,17.58,1c-5-5.26-13.61-7.58-20.48-5.2,4.75-7.28,8.94-15.12,10.58-23.66s.47-17.91-4.68-24.92a25.08,25.08,0,0,0-38.7-2.07c-5.1,5.58-8,13.43-11.33,20.21-2.4,4.86-4.89,9.84-8.86,13.55-6,5.6-14.58,7.62-20.79,13-7,6.07-10.06,15.78-10.09,25.07A73.41,73.41,0,0,0,328,370.91a70.25,70.25,0,0,0,25.44,15.55A27.47,27.47,0,0,1,352.31,373.62Z" style="opacity:0.2"></path><path d="M329.59,366.83A62.11,62.11,0,0,1,330.68,377l2.41-.91a6.21,6.21,0,0,1,6.68,1.53l.12.12a2.42,2.42,0,0,0,3.34.15h0a2.39,2.39,0,0,0,.83-1.75l.32-10.24Z" style="fill:#ffa8a7"></path><path d="M338.88,404.89c-5,5.34-14.18,10-20.86,5.45l.75,1.7c6.67,4.56,15.87-.11,20.86-5.45s1.75-9,6.25-13.78a16.28,16.28,0,0,0,3.88-5.77c-.2-.51-.39-1.18-.63-1.94a20.41,20.41,0,0,1-4,6C340.63,395.85,343.87,399.55,338.88,404.89Z" style="fill:#37474f"></path><path d="M346.67,379.52a9.87,9.87,0,0,1-1.57-3.64,2.09,2.09,0,0,0-1-1.48l-.06,1.71a2.42,2.42,0,0,1-4.17,1.6l-.12-.12a6.21,6.21,0,0,0-6.68-1.53l-2.45.93a1.88,1.88,0,0,0-1.22,1.8c.16,7-3.11,16.3-6.54,21.41-3.53,1.46-6.57,6.27-5,9.79l.16.35c6.68,4.56,15.87-.11,20.86-5.45s1.75-9,6.25-13.78a20.41,20.41,0,0,0,4-6A21.75,21.75,0,0,0,346.67,379.52Z" style="fill:#455a64"></path><path d="M336.91,389.63a.85.85,0,0,0,1.13-.38.84.84,0,0,0-.35-1.13,9.73,9.73,0,0,0-9.59,0c-.15.55-.31,1.1-.47,1.65A9.39,9.39,0,0,1,336.91,389.63Z" style="fill:#fff"></path><path d="M338.14,385.85a.85.85,0,0,0,.78-1.52,10.26,10.26,0,0,0-10,.08c-.1.57-.22,1.14-.34,1.72C331.51,384.59,334.44,384,338.14,385.85Z" style="fill:#fff"></path><path d="M335.56,393.4a.85.85,0,0,0,.78-1.52,9.71,9.71,0,0,0-9.38-.09c-.22.59-.44,1.18-.67,1.75A9.4,9.4,0,0,1,335.56,393.4Z" style="fill:#fff"></path><path d="M322.88,400.2c-3.53,1.46-6.57,6.27-5,9.79l.16.35c6.58,4.49,15.59,0,20.63-5.22C334.44,396.88,325.66,398.94,322.88,400.2Z" style="fill:#fff"></path><path d="M334.08,397.08a.85.85,0,0,0,1.13-.38.86.86,0,0,0-.34-1.14,9.76,9.76,0,0,0-9.41-.08c-.3.65-.6,1.28-.92,1.88C327.45,395.82,330.39,395.21,334.08,397.08Z" style="fill:#fff"></path><path d="M319.1,387.19a62.15,62.15,0,0,1-3.1,9.72l2.57.14a6.23,6.23,0,0,1,5.5,4.09l.06.16a2.43,2.43,0,0,0,3,1.49h0a2.42,2.42,0,0,0,1.46-1.27l4.43-9.24Z" style="fill:#ffa8a7"></path><path d="M312.24,425.76c-6.73,2.87-17,3.43-21.29-3.43v1.85c4.27,6.87,14.56,6.31,21.29,3.44s5.25-7.57,11.27-10.09a16.31,16.31,0,0,0,5.88-3.71c0-.55.12-1.23.21-2a20.23,20.23,0,0,1-6.09,3.88C317.49,418.2,319,422.89,312.24,425.76Z" style="fill:#37474f"></path><path d="M329.6,405.7a9.71,9.71,0,0,1,0-4,2.16,2.16,0,0,0-.31-1.76l-.74,1.55a2.42,2.42,0,0,1-4.46-.22l-.06-.16a6.23,6.23,0,0,0-5.5-4.09L316,396.9a1.88,1.88,0,0,0-1.84,1.16c-2.68,6.47-9.43,13.66-14.63,16.95-3.82-.09-8.54,3.08-8.54,6.93v.39c4.27,6.86,14.56,6.3,21.29,3.43s5.25-7.56,11.27-10.09a20.23,20.23,0,0,0,6.09-3.88A21.55,21.55,0,0,0,329.6,405.7Z" style="fill:#455a64"></path><path d="M316.59,411a.84.84,0,0,0,1.19.11.86.86,0,0,0,.14-1.18,9.75,9.75,0,0,0-8.78-3.85c-.36.44-.73.88-1.1,1.31A9.42,9.42,0,0,1,316.59,411Z" style="fill:#fff"></path><path d="M319.24,408a.85.85,0,0,0,1.19.1.84.84,0,0,0,.14-1.17,10.23,10.23,0,0,0-9.16-4c-.32.48-.66,1-1,1.43C313.68,404.21,316.61,404.84,319.24,408Z" style="fill:#fff"></path><path d="M313.83,413.91a.85.85,0,0,0,1.19.1.83.83,0,0,0,.14-1.17,9.74,9.74,0,0,0-8.55-3.88c-.43.46-.87.9-1.31,1.33A9.39,9.39,0,0,1,313.83,413.91Z" style="fill:#fff"></path><path d="M299.49,415c-3.82-.09-8.54,3.08-8.54,6.93v.39c4.2,6.76,14.25,6.31,21,3.55C311.41,416.64,302.54,415,299.49,415Z" style="fill:#fff"></path><path d="M311,416.68a.85.85,0,0,0,1.33-1.07,9.76,9.76,0,0,0-8.58-3.88c-.53.48-1.07.93-1.6,1.35C305.44,412.85,308.37,413.48,311,416.68Z" style="fill:#fff"></path><path d="M358.6,299.74l-33.66,18.75a16.69,16.69,0,0,0-8.28,17.61l6.54,35.17-5.36,17c4.62,6.2,15.23,6.52,15.23,6.52,5.92-11.87,10.26-16.92,13.62-26.86s5.6-16.81,5.6-16.81l27.95-7.64a33.12,33.12,0,0,0,24.22-28.18c.48-4.22.5-7.11.5-7.11Z" style="fill:#37474f"></path><path d="M358.85,309.19a15.88,15.88,0,0,0,3.77,10.26l-23.75,14.86a17,17,0,0,0-7.27,9.48l-8.4,27.48,7.58-30.61A13.81,13.81,0,0,1,337,332.2l21.93-13.56C356.64,313,358.85,309.19,358.85,309.19Z" style="opacity:0.2"></path><path d="M333.46,263.36l-4.71,4.57c-4.83-6.17-11.33-10.35-17-19-1.63-2.07-1.46-6.2-2.57-8.31-.87-1.65-2.39-4.13-3-5.52a.92.92,0,0,0-1.35-.41c-1.61,1.17-.76,4,.09,6.92,1,3.46-4.22-1.22-4.92-2-3.3-3.08-6.14-10.62-8.4-9.87s-.46,4.51-.46,4.51c-2.08.44-1.29,3.75-1.29,3.75-1.23,2.16-.88,5.5,1.64,8.6,1.83,2.25,6.77,5.34,9.34,6.86a8.2,8.2,0,0,1,2.68,2.53l16.17,24a9.8,9.8,0,0,0,14,2.38l8.78-6.57Z" style="fill:#ffa8a7"></path><path d="M360.82,242.16c-8.95-.4-21.1,14.13-27.95,21,.53,8.37,9.54,13.87,9.54,13.87a194.82,194.82,0,0,0,18.41-14.4Z" style="fill:#e0e0e0"></path><path d="M360.82,242.16c-8.95-.4-21.1,14.13-27.95,21,.53,8.37,9.54,13.87,9.54,13.87a194.82,194.82,0,0,0,18.41-14.4Z" style="opacity:0.1"></path><path d="M316.68,299.38a8.31,8.31,0,0,1-7.58,0,13.46,13.46,0,0,1-1.54-.85,2.84,2.84,0,0,0,1.54,2,8.37,8.37,0,0,0,7.58,0,2.74,2.74,0,0,0,1.52-2,12.05,12.05,0,0,1-1.45.82Z" style="fill:#263238"></path><path d="M325,286.3h0c0,1.79-1.16,3.58-3.51,4.95-4.7,2.73-12.35,2.73-17.08,0-2.36-1.37-3.55-3.16-3.56-4.95h0a15.29,15.29,0,0,0,6.75,12.23,13.46,13.46,0,0,0,1.54.85,8.31,8.31,0,0,0,7.58,0l.07,0a12.05,12.05,0,0,0,1.45-.82A15.28,15.28,0,0,0,325,286.3Z" style="fill:#455a64"></path><path d="M304.37,291.25c4.73,2.73,12.38,2.73,17.08,0,2.35-1.37,3.52-3.16,3.51-4.95s-1.2-3.58-3.57-4.94c-4.73-2.73-12.38-2.73-17.07,0-2.35,1.36-3.52,3.15-3.51,4.94S302,289.88,304.37,291.25Zm.48-9a16.14,16.14,0,0,1,8-1.91,16.32,16.32,0,0,1,8,1.91c2,1.13,3,2.57,3,4.05a4.33,4.33,0,0,1-1.92,3.29,8.58,8.58,0,0,1-1.06.73,17.75,17.75,0,0,1-16,0,9.94,9.94,0,0,1-1.12-.76,4.37,4.37,0,0,1-1.92-3.29C301.86,284.82,302.92,283.39,304.85,282.27Z" style="fill:#455a64"></path><path d="M303.78,289.58a5,5,0,0,1,2.35-2.45,14.87,14.87,0,0,1,13.46,0,5.08,5.08,0,0,1,2.39,2.48,4.33,4.33,0,0,0,1.92-3.29c0-1.48-1.08-2.92-3-4.05a16.32,16.32,0,0,0-8-1.91,16.14,16.14,0,0,0-8,1.91c-1.93,1.12-3,2.55-3,4A4.37,4.37,0,0,0,303.78,289.58Z" style="fill:#263238"></path><path d="M316.68,299.38a8.31,8.31,0,0,1-7.58,0,13.46,13.46,0,0,1-1.54-.85,2.84,2.84,0,0,0,1.54,2,8.37,8.37,0,0,0,7.58,0,2.74,2.74,0,0,0,1.52-2,12.05,12.05,0,0,1-1.45.82Z" style="fill:#fff;opacity:0.6000000000000001"></path><path d="M325,286.3h0c0,1.79-1.16,3.58-3.51,4.95-4.7,2.73-12.35,2.73-17.08,0-2.36-1.37-3.55-3.16-3.56-4.95h0a15.29,15.29,0,0,0,6.75,12.23,13.46,13.46,0,0,0,1.54.85,8.31,8.31,0,0,0,7.58,0l.07,0a12.05,12.05,0,0,0,1.45-.82A15.28,15.28,0,0,0,325,286.3Z" style="fill:#fff;opacity:0.7000000000000001"></path><path d="M304.37,291.25c4.73,2.73,12.38,2.73,17.08,0,2.35-1.37,3.52-3.16,3.51-4.95s-1.2-3.58-3.57-4.94c-4.73-2.73-12.38-2.73-17.07,0-2.35,1.36-3.52,3.15-3.51,4.94S302,289.88,304.37,291.25Zm.48-9a16.14,16.14,0,0,1,8-1.91,16.32,16.32,0,0,1,8,1.91c2,1.13,3,2.57,3,4.05a4.33,4.33,0,0,1-1.92,3.29,8.58,8.58,0,0,1-1.06.73,17.75,17.75,0,0,1-16,0,9.94,9.94,0,0,1-1.12-.76,4.37,4.37,0,0,1-1.92-3.29C301.86,284.82,302.92,283.39,304.85,282.27Z" style="fill:#fff;opacity:0.8"></path><path d="M303.78,289.58a5,5,0,0,1,2.35-2.45,14.87,14.87,0,0,1,13.46,0,5.08,5.08,0,0,1,2.39,2.48,4.33,4.33,0,0,0,1.92-3.29c0-1.48-1.08-2.92-3-4.05a16.32,16.32,0,0,0-8-1.91,16.14,16.14,0,0,0-8,1.91c-1.93,1.12-3,2.55-3,4A4.37,4.37,0,0,0,303.78,289.58Z" style="fill:#fff;opacity:0.6000000000000001"></path><path d="M319.59,287.13a14.87,14.87,0,0,0-13.46,0,5,5,0,0,0-2.35,2.45,9.94,9.94,0,0,0,1.12.76,17.75,17.75,0,0,0,16,0,8.58,8.58,0,0,0,1.06-.73A5.08,5.08,0,0,0,319.59,287.13Z" style="fill:#632828"></path><path d="M405.5,310.84c-6,5.73-34.65,6.79-49.28-7.14,1.41-9.83.94-20.37,0-30.79s-7-28.63,4.6-30.75c15.53-3,25.68-2.8,36.05,3.05C408,263.67,406.43,291.29,405.5,310.84Z" style="fill:#e0e0e0"></path><path d="M389.45,218.7a4.22,4.22,0,0,0-2.07-2.17,3.12,3.12,0,0,0-.62-.23,3.89,3.89,0,0,0-3.46,1.15,6.68,6.68,0,0,0-1.68,3.35,25.14,25.14,0,0,0-.42,3.77,45.31,45.31,0,0,1-1,6.65,8.47,8.47,0,0,1-4.31,5.62l-.14.08a26.13,26.13,0,0,1-10,2.67v3.81c-2.77,3.78-3.54,11,3.76,8.83s12.06-7,12.06-11.79c.05-2,.1-4.6.15-6.92.07-3.12.13-5.73.13-5.73a4.11,4.11,0,0,0,2.67,1.4,3.62,3.62,0,0,0,1.4-.08,5.26,5.26,0,0,0,3.12-2.66,9.8,9.8,0,0,0,1-4.06A8.24,8.24,0,0,0,389.45,218.7Z" style="fill:#ffa8a7"></path><path d="M387.08,205.51a9,9,0,0,0-5.74-3l-30,2.79c-3.45,7.33-.69,12.18-.69,12.18-.47,11.18-.86,18.29,4.06,20.64,2.68,1.28,6.76,1.83,11,1.52a26.13,26.13,0,0,0,10-2.67l.16-.09a8.47,8.47,0,0,0,4.3-5.64,46.26,46.26,0,0,0,1-6.62,25.14,25.14,0,0,1,.42-3.77,6.68,6.68,0,0,1,1.68-3.35,3.89,3.89,0,0,1,3.46-1.15,3.12,3.12,0,0,1,.62.23C388.23,211.56,388.48,207.26,387.08,205.51Z" style="fill:#37474f"></path><path d="M376.09,206.37a10.42,10.42,0,0,0,.4,6.28,45.49,45.49,0,0,1,1.91,6.11,10,10,0,0,1-.83,6.16,7.24,7.24,0,0,1-4.78,3.81c-3.22.69-6.37-1.19-9.61-1.82a13.45,13.45,0,0,0-9,1.6,1.57,1.57,0,0,1-2.36-1.25c-.38-6.44-.37-16.52.58-21.26Z" style="fill:#ffa8a7"></path><path d="M352.88,200.54,349.15,198a7.91,7.91,0,0,0,1.42,7.34,11.85,11.85,0,0,0,6.58,3.87,25,25,0,0,0,7.73.35,56.38,56.38,0,0,0,11.16-2,8.88,8.88,0,0,0,4.39-2.3,5.8,5.8,0,0,0,.23-6.83,8.67,8.67,0,0,0-6.17-3.57,23.55,23.55,0,0,0-7.42.58,22.46,22.46,0,0,1-7.43.53,7.72,7.72,0,0,1-6-4C351.55,195.33,352.88,200.54,352.88,200.54Z" style="fill:#37474f"></path><polygon points="362.29 217.78 356.82 224.4 361.84 226.18 362.29 217.78" style="fill:#f28f8f"></polygon><path d="M366.43,229.47l-4.22,1.3a2.6,2.6,0,0,0,2.84,1.31A2.34,2.34,0,0,0,366.43,229.47Z" style="fill:#f28f8f"></path><path d="M366.43,229.47l-4.22,1.3a2.6,2.6,0,0,0,2.84,1.31A2.34,2.34,0,0,0,366.43,229.47Z" style="opacity:0.30000000000000004"></path><path d="M363.67,232a2.43,2.43,0,0,0,1.38.08,2.14,2.14,0,0,0,1.38-1.91,2.53,2.53,0,0,0-1.64.3A2.49,2.49,0,0,0,363.67,232Z" style="fill:#f28f8f"></path><path d="M369.73,219.23a1.5,1.5,0,1,1-1.42-1.58A1.49,1.49,0,0,1,369.73,219.23Z" style="fill:#263238"></path><path d="M357.16,218.07a1.5,1.5,0,1,1-1.42-1.58A1.51,1.51,0,0,1,357.16,218.07Z" style="fill:#263238"></path><path d="M356,212l-3.45,2.12a2.12,2.12,0,0,1,.78-2.32A2.52,2.52,0,0,1,356,212Z" style="fill:#263238"></path><path d="M368.88,212.53l3.2,2.48a2.15,2.15,0,0,0-.52-2.39A2.53,2.53,0,0,0,368.88,212.53Z" style="fill:#263238"></path><path d="M377.73,236.72a9.6,9.6,0,0,0,1.75-3.64,8.4,8.4,0,0,1-3.63,3.76l-.14.08a26.13,26.13,0,0,1-10,2.67v2.57a25,25,0,0,0,5.94-1.25A13.4,13.4,0,0,0,377.73,236.72Z" style="opacity:0.2"></path><path d="M341.72,307.25c2.74,0,25.64-.51,36.16-.74a8.48,8.48,0,0,0,7.48-4.89l8-17.24L376.82,277l-6.09,15.1c-9.59-.59-21.65,3.74-28.67,3.16-3.9-.25-3.37-3.76-7.67-4.81s-5.45.17-7.55-.36-2.44,2.84,1.51,3.56c-3.09.2-2.57-2.11-4.34-2.37a3.17,3.17,0,0,0-3.14,1.5,2.77,2.77,0,0,0,.71,3.17,3,3,0,0,0-1.7,2.78,2.78,2.78,0,0,0,1.69,2.61,2.76,2.76,0,0,0-.46,2.76,2.72,2.72,0,0,0,2.24,1.64,3.55,3.55,0,0,0,2.42,2.93,9.59,9.59,0,0,0,3.85,0C333.57,308.23,337.78,307.74,341.72,307.25Z" style="fill:#ffa8a7"></path><path d="M390.81,242.42c-7.08,7.2-15.63,36-15.63,36,4.8,7.84,18.38,8.07,18.38,8.07C407.6,252.9,406.44,245.76,390.81,242.42Z" style="fill:#e0e0e0"></path><path d="M390.81,242.42c-7.08,7.2-15.63,36-15.63,36,4.8,7.84,18.38,8.07,18.38,8.07C407.6,252.9,406.44,245.76,390.81,242.42Z" style="opacity:0.1"></path><path d="M324.23,291.39a2,2,0,0,0-1.34,0,6.13,6.13,0,0,1,1.41-1.7,2,2,0,0,1,3.37,1.6,6.57,6.57,0,0,1-.48,2.35A1.81,1.81,0,0,1,326,293a5.75,5.75,0,0,0,.19-1.3,1.62,1.62,0,0,0,0-.58.79.79,0,0,0-.32-.47.83.83,0,0,0-.89.08A2.67,2.67,0,0,0,324.23,291.39Z" style="fill:#263238"></path><path d="M324.23,291.39a2,2,0,0,0-1.34,0,6.13,6.13,0,0,1,1.41-1.7,2,2,0,0,1,3.37,1.6,6.57,6.57,0,0,1-.48,2.35A1.81,1.81,0,0,1,326,293a5.75,5.75,0,0,0,.19-1.3,1.62,1.62,0,0,0,0-.58.79.79,0,0,0-.32-.47.83.83,0,0,0-.89.08A2.67,2.67,0,0,0,324.23,291.39Z" style="fill:#fff;opacity:0.5"></path></g><g id="freepik--character-1--inject-9"><path d="M164.89,282.89c8.91,6.19,18.94,10.47,26.39,18.76,13.89,15.5,14.22,40.43,3.3,58.15s-31.21,28.37-51.88,30.8c-21.69,2.56-44.45-3.43-61.46-17.12S53.4,338.4,53.4,316.57,64.6,273,82.89,261.05c16.69-10.88,40.66-14,57.41-1.53,8.46,6.3,14.11,15.59,22.55,21.9Q163.86,282.17,164.89,282.89Z" style="fill:#43CEA2"></path><path d="M164.89,282.89c8.91,6.19,18.94,10.47,26.39,18.76,13.89,15.5,14.22,40.43,3.3,58.15s-31.21,28.37-51.88,30.8c-21.69,2.56-44.45-3.43-61.46-17.12S53.4,338.4,53.4,316.57,64.6,273,82.89,261.05c16.69-10.88,40.66-14,57.41-1.53,8.46,6.3,14.11,15.59,22.55,21.9Q163.86,282.17,164.89,282.89Z" style="fill:#fff;opacity:0.2"></path><path d="M65.05,313.57a63.71,63.71,0,0,1,54.37-61.88,45.48,45.48,0,0,1,6.14,1A62.14,62.14,0,0,0,66.73,313.6c-.4,20.33,9.54,41,26.59,55.42,13.36,11.26,31.11,18.73,50.62,21.42l-1.24.16c-1.76.21-3.52.35-5.28.45-17.34-3.36-33-10.51-45.18-20.75C74.8,355.6,64.64,334.39,65.05,313.57Z" style="fill:#fff"></path><path d="M161.26,373.67l-.06-.44a23.45,23.45,0,0,0-19-19.54,74.35,74.35,0,0,1-24.34-9.33c-5.32-3.21-10.34-7.16-16.31-8.9a26.59,26.59,0,0,0-17.58,1c5-5.26,13.61-7.58,20.48-5.2-4.76-7.28-8.94-15.12-10.58-23.66s-.47-17.91,4.68-24.92a25.06,25.06,0,0,1,38.7-2.07c5.1,5.58,8,13.43,11.32,20.21,2.41,4.86,4.9,9.84,8.86,13.55,6,5.6,14.59,7.62,20.79,13,7,6.07,10.07,15.77,10.1,25.06A74,74,0,0,1,185.59,371a70.33,70.33,0,0,1-25.44,15.55A27.48,27.48,0,0,0,161.26,373.67Z" style="opacity:0.2"></path><path d="M194.47,387.24a62.28,62.28,0,0,0,3.1,9.71l-2.57.15a6.19,6.19,0,0,0-5.5,4.09l-.06.16a2.43,2.43,0,0,1-3,1.49h0a2.42,2.42,0,0,1-1.46-1.27l-4.43-9.24Z" style="fill:#955"></path><path d="M201.33,425.81c6.72,2.87,17,3.43,21.29-3.44v1.86c-4.27,6.87-14.57,6.31-21.29,3.43s-5.25-7.56-11.27-10.08a16.3,16.3,0,0,1-5.89-3.71c0-.55-.11-1.24-.21-2a20.5,20.5,0,0,0,6.1,3.88C196.08,418.24,194.61,422.93,201.33,425.81Z" style="fill:#37474f"></path><path d="M184,405.74a9.72,9.72,0,0,0,0-4,2.12,2.12,0,0,1,.3-1.76l.75,1.55a2.42,2.42,0,0,0,4.46-.22l.06-.16a6.19,6.19,0,0,1,5.5-4.09l2.61-.15a1.88,1.88,0,0,1,1.84,1.16c2.68,6.47,9.43,13.66,14.63,16.95,3.81-.09,8.54,3.08,8.54,6.93v.38c-4.27,6.87-14.57,6.31-21.29,3.44s-5.25-7.57-11.27-10.09a20.5,20.5,0,0,1-6.1-3.88A22.4,22.4,0,0,1,184,405.74Z" style="fill:#455a64"></path><path d="M197,411.05a.85.85,0,0,1-1.19.11.84.84,0,0,1-.14-1.18,9.73,9.73,0,0,1,8.78-3.85c.36.44.73.88,1.1,1.31A9.41,9.41,0,0,0,197,411.05Z" style="fill:#fff"></path><path d="M194.33,408.08A.85.85,0,0,1,193,407a10.24,10.24,0,0,1,9.16-3.95c.32.48.66,1,1,1.43C199.88,404.26,197,404.88,194.33,408.08Z" style="fill:#fff"></path><path d="M199.73,414a.84.84,0,0,1-1.19.11.86.86,0,0,1-.14-1.18A9.74,9.74,0,0,1,207,409c.44.46.88.9,1.32,1.33A9.4,9.4,0,0,0,199.73,414Z" style="fill:#fff"></path><path d="M214.08,415.06c3.81-.09,8.54,3.08,8.54,6.93v.38c-4.21,6.77-14.26,6.32-21,3.56C202.16,416.69,211,415,214.08,415.06Z" style="fill:#fff"></path><path d="M202.57,416.72a.84.84,0,0,1-1.19.11.85.85,0,0,1-.14-1.18,9.74,9.74,0,0,1,8.57-3.87c.54.48,1.07.93,1.6,1.35C208.13,412.9,205.2,413.52,202.57,416.72Z" style="fill:#fff"></path><path d="M215.5,373.14a62.15,62.15,0,0,0,3.1,9.72L216,383a6.2,6.2,0,0,0-5.51,4.09l-.05.16a2.43,2.43,0,0,1-3,1.49h0a2.41,2.41,0,0,1-1.47-1.27l-4.42-9.24Z" style="fill:#955"></path><path d="M222.37,411.71c6.72,2.87,17,3.43,21.29-3.43v1.85c-4.27,6.87-14.57,6.31-21.29,3.43s-5.26-7.56-11.28-10.08a16.31,16.31,0,0,1-5.88-3.71c0-.55-.12-1.24-.21-2a20.57,20.57,0,0,0,6.09,3.88C217.11,404.14,215.64,408.84,222.37,411.71Z" style="fill:#37474f"></path><path d="M205,391.64a9.48,9.48,0,0,0,0-4,2.16,2.16,0,0,1,.31-1.76l.74,1.55a2.41,2.41,0,0,0,1.47,1.27,2.43,2.43,0,0,0,3-1.49l.05-.16A6.2,6.2,0,0,1,216,383l2.6-.15a1.88,1.88,0,0,1,1.84,1.16c2.69,6.47,9.43,13.66,14.63,16.95,3.82-.09,8.55,3.08,8.55,6.93v.39c-4.27,6.86-14.57,6.3-21.29,3.43s-5.26-7.57-11.28-10.09a20.57,20.57,0,0,1-6.09-3.88A22,22,0,0,1,205,391.64Z" style="fill:#455a64"></path><path d="M218,397a.86.86,0,0,1-1.2.11.85.85,0,0,1-.13-1.18,9.73,9.73,0,0,1,8.78-3.85c.36.44.72.88,1.1,1.31A9.4,9.4,0,0,0,218,397Z" style="fill:#fff"></path><path d="M215.36,394a.85.85,0,0,1-1.33-1.06,10.25,10.25,0,0,1,9.17-4c.32.48.66,1,1,1.43C220.92,390.16,218,390.79,215.36,394Z" style="fill:#fff"></path><path d="M220.77,399.85a.85.85,0,0,1-1.33-1.06,9.74,9.74,0,0,1,8.55-3.88c.43.46.87.9,1.32,1.33A9.41,9.41,0,0,0,220.77,399.85Z" style="fill:#fff"></path><path d="M235.11,401c3.82-.09,8.55,3.08,8.55,6.93v.39c-4.21,6.76-14.26,6.31-21,3.55C223.19,402.59,232.06,400.92,235.11,401Z" style="fill:#fff"></path><path d="M223.61,402.62a.84.84,0,0,1-1.19.11.83.83,0,0,1-.14-1.17,9.72,9.72,0,0,1,8.57-3.88c.53.48,1.07.93,1.6,1.35C229.16,398.8,226.23,399.43,223.61,402.62Z" style="fill:#fff"></path><path d="M216.15,374.89c-4.62,6.2-15.23,6.51-15.23,6.51-5.92-11.87-10.26-16.91-13.62-26.85s-5.6-16.81-5.6-16.81l-45.1-12.33c-7.43-11.9-5.27-21.31-5.27-21.31l26-.36L193.64,318a21,21,0,0,1,12.82,14.87Z" style="fill:#43CEA2"></path><path d="M216.15,374.89c-4.62,6.2-15.23,6.51-15.23,6.51-5.92-11.87-10.26-16.91-13.62-26.85s-5.6-16.81-5.6-16.81l-45.1-12.33c-7.43-11.9-5.27-21.31-5.27-21.31l26-.36L193.64,318a21,21,0,0,1,12.82,14.87Z" style="opacity:0.30000000000000004"></path><path d="M179.25,327.85l-20.9-13a11.7,11.7,0,0,1,2.37-5.19,12.39,12.39,0,0,0-6.08,5.79l-3.39,13.95,30.45,8.32s2.24,6.86,5.6,16.81a77.94,77.94,0,0,0,7.07,14.83c-1.25-6.79-2.85-15.84-4.44-25.51A23.3,23.3,0,0,0,179.25,327.85Z" style="opacity:0.30000000000000004"></path><path d="M195.73,388.34c-4.62,6.2-15.23,6.51-15.23,6.51C174.58,383,170.24,377.94,166.87,368s-5.6-16.81-5.6-16.81l-28-7.64a33.19,33.19,0,0,1-24.23-28.33c-.46-4.14-.48-7-.48-7l28.2-5.16,40,27.79a21,21,0,0,1,8.52,12.57Z" style="fill:#43CEA2"></path><path d="M195.73,388.34c-4.62,6.2-15.23,6.51-15.23,6.51C174.58,383,170.24,377.94,166.87,368s-5.6-16.81-5.6-16.81l-28-7.64a33.19,33.19,0,0,1-24.23-28.33c-.46-4.14-.48-7-.48-7l28.2-5.16,40,27.79a21,21,0,0,1,8.52,12.57Z" style="opacity:0.30000000000000004"></path><path d="M164.23,267.42,176,277l7.79-12.64-9.8-11C165.41,257.15,164.23,267.42,164.23,267.42Z" style="fill:#823c3c"></path><path d="M144.27,233.89c9.28-1,12.77,1.9,18.79,7.58s12.1,12.07,12.1,12.07c-9.28,4.54-10.31,15.58-10.31,15.58-5.06-3.92-9.34-7-9.34-7Z" style="fill:#43CEA2"></path><path d="M144.27,233.89c9.28-1,12.77,1.9,18.79,7.58s12.1,12.07,12.1,12.07c-9.28,4.54-10.31,15.58-10.31,15.58-5.06-3.92-9.34-7-9.34-7Z" style="fill:#fff;opacity:0.5"></path><path d="M111.16,241.56c13.21-6.19,23.11-6.91,33.91-7.38,16.16,10.41,10.11,19.07,9.84,33s-3.31,22.28,6.32,36.73c-21.18,16.92-47.94,11.57-54.33,7.5C102.77,272.93,104,244.53,111.16,241.56Z" style="fill:#43CEA2"></path><path d="M111.16,241.56c13.21-6.19,23.11-6.91,33.91-7.38,16.16,10.41,10.11,19.07,9.84,33s-3.31,22.28,6.32,36.73c-21.18,16.92-47.94,11.57-54.33,7.5C102.77,272.93,104,244.53,111.16,241.56Z" style="fill:#fff;opacity:0.7000000000000001"></path><path d="M163,248.6l11.84,27.9a8.2,8.2,0,0,0,10.5,4.45h0a8.21,8.21,0,0,0,3.47-12.8L168.91,243.3a9,9,0,0,0-2.14-1.94l-8-5.17a4.21,4.21,0,0,0-2.87-.64l-5.38.74-.26,14.79,3.42.43a5.61,5.61,0,0,0,2.72-.33Z" style="fill:#955"></path><path d="M123.44,276l3,16.46,21.64,5.5a6.39,6.39,0,0,0,4.58-.53,21,21,0,0,1,4.84-2c1.34-.31,2.71-.48,4.05-.78a12,12,0,0,0,2.74-.93,1.17,1.17,0,0,1,1.71,1,2.5,2.5,0,0,1-.19.94,4.64,4.64,0,0,1-1.82,2,11.32,11.32,0,0,1-3.94,1.65,11,11,0,0,0,6.16.67c2-.26,4-.8,6-1a3.69,3.69,0,0,1,2.21.26,1.46,1.46,0,0,1,.66,1.91c-.52.82-1.86.63-2.51,1.34a3.69,3.69,0,0,1,.66,1.42,2.23,2.23,0,0,1-.31,1.56,1.58,1.58,0,0,1-1.38.72,5.64,5.64,0,0,1-2.2,3.78,11.2,11.2,0,0,1-4,1.88c-6,1.62-11.77-1.49-17.79-3-.82-.2-20.09-1.36-29.94-1.94a7.4,7.4,0,0,1-6.82-5.94l-4.31-21.67Z" style="fill:#955"></path><path d="M116.84,296.67c1.3-1.58,6.31-4.78,9.63-4.24l-.31-1.69A9.71,9.71,0,0,0,116.84,296.67Z" style="fill:#823c3c"></path><path d="M111.16,241.56c-15.82,5.92-12.22,20-6.39,42.25,9.42,2.6,20.56-5.59,20.56-5.59C122.23,260.61,121.06,241.29,111.16,241.56Z" style="fill:#43CEA2"></path><path d="M111.16,241.56c-15.82,5.92-12.22,20-6.39,42.25,9.42,2.6,20.56-5.59,20.56-5.59C122.23,260.61,121.06,241.29,111.16,241.56Z" style="fill:#fff;opacity:0.5"></path><path d="M115.25,216.08c-1.59-5.34-1.25-11.47,1.94-16a17.49,17.49,0,0,1,8.47-6.25,26.81,26.81,0,0,1,10.53-1.36,19.18,19.18,0,0,1,8.12,1.95,13.07,13.07,0,0,1,5.38,17.72,21.86,21.86,0,0,1-5.32,6.07,68.08,68.08,0,0,1-13.4,9c-1.2.61-2.42,1.18-3.65,1.72-.84.36-2.43,1.39-3.37,1.21s-1.93-2-2.5-2.67c-.82-1-1.6-2.12-2.33-3.22A31,31,0,0,1,115.25,216.08Z" style="fill:#263238"></path><path d="M148.48,202.41a13.35,13.35,0,0,1-8.87,3.73c-3.12,0-6.14-1-9.14-1.82a7,7,0,0,1-2.07,3.82,8,8,0,0,1-4.26,1.85,27.53,27.53,0,0,1,0,8.5A1.63,1.63,0,0,1,123,219.8c-1,.29-1.68-.75-2.18-1.59a7,7,0,0,0-2.19-2.45,3.43,3.43,0,0,0-3.18-.32,3.29,3.29,0,0,0-1.67,2,6.1,6.1,0,0,0-.13,2.69,8.06,8.06,0,0,0,1.75,4.11,5.54,5.54,0,0,0,3.91,2,4,4,0,0,0,3.76-1.86l.07.28a9.5,9.5,0,0,0,.41,1.31,11.2,11.2,0,0,0,8.21,7c1.91.4,4,.78,6.18,1.11,1.06.16,2.13.31,3.19.44a7.7,7.7,0,0,0,8.5-6.29C151.11,220.11,151.59,210.54,148.48,202.41Z" style="fill:#955"></path><path d="M123.58,226v14.31a15.77,15.77,0,0,0,11.51,6.38,5.61,5.61,0,0,0,4.14-1.06,3.36,3.36,0,0,0-.42-5.31,1.83,1.83,0,0,1-.84-1.53v-4.65c-2.16-.33-4.27-.71-6.18-1.11A11.2,11.2,0,0,1,123.58,226Z" style="fill:#955"></path><path d="M133.14,236.21a30.35,30.35,0,0,0,4.83.86v-2.9c-2.16-.33-4.27-.71-6.18-1.11a11.19,11.19,0,0,1-7.93-6.41,11.39,11.39,0,0,0,2.89,6A13.71,13.71,0,0,0,133.14,236.21Z" style="fill:#823c3c"></path><path d="M142.26,212.78h-1.85a13.57,13.57,0,0,0-12.79-1.3v2l.51.27a20.27,20.27,0,0,1,.48,3.83,5.09,5.09,0,0,0,1.41,3.39,5.71,5.71,0,0,0,3.81,1,7,7,0,0,0,3.16-.45,5.06,5.06,0,0,0,2.42-2.9c.45-1.22.38-1.92,1-3.39a1.09,1.09,0,0,1,1-.68,1,1,0,0,1,.94.68c.53,1.47.46,2.17.89,3.39a5,5,0,0,0,2.26,2.9,6.19,6.19,0,0,0,3,.45,5.07,5.07,0,0,0,3.56-1,5.26,5.26,0,0,0,1.32-3.39,21.1,21.1,0,0,1,.45-3.83l.48-.27v-2A12,12,0,0,0,142.26,212.78Zm-2.78,1-.08.7a16.54,16.54,0,0,1-.93,3.68,4.14,4.14,0,0,1-1.91,2.33,5.27,5.27,0,0,1-2.28.37h-.41a5,5,0,0,1-3.15-.76,4,4,0,0,1-1.08-2.72c0-.32-.06-.66-.08-1-.06-.93,0-3,.07-4.45a12,12,0,0,1,3.25-.45,12.43,12.43,0,0,1,6.52,1.9C139.51,213.46,139.48,213.78,139.48,213.78Zm12.93,2.61c0,.33,0,.67-.07,1a4.17,4.17,0,0,1-1,2.72,4.35,4.35,0,0,1-2.94.76H148a4.64,4.64,0,0,1-2.13-.37,4.06,4.06,0,0,1-1.78-2.33,17.35,17.35,0,0,1-.88-3.68l-.07-.7s0-.32.08-.39a11.07,11.07,0,0,1,6.1-1.9,10.44,10.44,0,0,1,3,.45C152.42,213.41,152.47,215.46,152.41,216.39Z" style="fill:#455a64"></path><path d="M127.62,211.48l-10.41,3.74a4.5,4.5,0,0,1,2,1c.11.09,8.37-2.75,8.37-2.75Z" style="fill:#455a64"></path><polygon points="141.32 214.64 146.57 221 141.75 222.71 141.32 214.64" style="fill:#955"></polygon><polygon points="141.32 214.64 146.57 221 141.75 222.71 141.32 214.64" style="fill:#823c3c"></polygon><path d="M133.9,215.44a1.45,1.45,0,1,0,1.45-1.44A1.46,1.46,0,0,0,133.9,215.44Z" style="fill:#263238"></path><path d="M146,215.05a1.44,1.44,0,1,0,1.45-1.44A1.44,1.44,0,0,0,146,215.05Z" style="fill:#263238"></path><path d="M145.25,208.65l3.87.43a2.07,2.07,0,0,0-1.62-1.7A2.47,2.47,0,0,0,145.25,208.65Z" style="fill:#263238"></path><path d="M136.79,208.2l-3.75,1a2,2,0,0,1,1.34-1.92A2.44,2.44,0,0,1,136.79,208.2Z" style="fill:#263238"></path><path d="M136.89,225.08l4,1.23a2.46,2.46,0,0,1-2.7,1.25A2.23,2.23,0,0,1,136.89,225.08Z" style="fill:#955"></path><path d="M136.89,225.08l4,1.23a2.46,2.46,0,0,1-2.7,1.25A2.23,2.23,0,0,1,136.89,225.08Z" style="fill:#632828"></path><path d="M139.51,227.48a2.27,2.27,0,0,1-1.31.08,2,2,0,0,1-1.31-1.82,2.43,2.43,0,0,1,1.56.29A2.34,2.34,0,0,1,139.51,227.48Z" style="fill:#823c3c"></path><path d="M141.16,251.93a8.31,8.31,0,0,0,7.58,0,13.46,13.46,0,0,0,1.54-.85,2.84,2.84,0,0,1-1.54,2,8.37,8.37,0,0,1-7.58,0,2.74,2.74,0,0,1-1.52-2,12.05,12.05,0,0,0,1.45.82Z" style="fill:#263238"></path><path d="M132.89,238.85h0c0,1.8,1.15,3.58,3.5,5,4.7,2.73,12.35,2.73,17.08,0,2.37-1.37,3.55-3.15,3.56-5h0a15.29,15.29,0,0,1-6.75,12.23,13.46,13.46,0,0,1-1.54.85,8.31,8.31,0,0,1-7.58,0l-.07,0a12.05,12.05,0,0,1-1.45-.82A15.27,15.27,0,0,1,132.89,238.85Z" style="fill:#455a64"></path><path d="M157,238.85c0-1.78-1.15-3.57-3.5-4.94-4.7-2.73-12.35-2.73-17.08,0-2.37,1.37-3.55,3.16-3.56,4.94s1.15,3.58,3.5,5c4.7,2.73,12.35,2.73,17.08,0C155.84,242.43,157,240.65,157,238.85Zm-1.05,0a4.35,4.35,0,0,1-1.92,3.29,9.94,9.94,0,0,1-1.12.76,17.75,17.75,0,0,1-16,0,8.58,8.58,0,0,1-1.06-.73,4.33,4.33,0,0,1-1.92-3.29c0-1.48,1.08-2.92,3-4.05a17.75,17.75,0,0,1,16,0C154.92,235.94,156,237.37,156,238.84Z" style="fill:#455a64"></path><path d="M154.06,242.13a5,5,0,0,0-2.35-2.45,13.5,13.5,0,0,0-6.72-1.61,13.66,13.66,0,0,0-6.74,1.61,5.08,5.08,0,0,0-2.39,2.48,4.33,4.33,0,0,1-1.92-3.29c0-1.48,1.08-2.92,3-4.05a17.75,17.75,0,0,1,16,0c1.92,1.12,3,2.55,3,4A4.35,4.35,0,0,1,154.06,242.13Z" style="fill:#263238"></path><path d="M141.16,251.93a8.31,8.31,0,0,0,7.58,0,13.46,13.46,0,0,0,1.54-.85,2.84,2.84,0,0,1-1.54,2,8.37,8.37,0,0,1-7.58,0,2.74,2.74,0,0,1-1.52-2,12.05,12.05,0,0,0,1.45.82Z" style="fill:#fff;opacity:0.6000000000000001"></path><path d="M132.89,238.85h0c0,1.8,1.15,3.58,3.5,5,4.7,2.73,12.35,2.73,17.08,0,2.37-1.37,3.55-3.15,3.56-5h0a15.29,15.29,0,0,1-6.75,12.23,13.46,13.46,0,0,1-1.54.85,8.31,8.31,0,0,1-7.58,0l-.07,0a12.05,12.05,0,0,1-1.45-.82A15.27,15.27,0,0,1,132.89,238.85Z" style="fill:#fff;opacity:0.7000000000000001"></path><path d="M157,238.85c0-1.78-1.15-3.57-3.5-4.94-4.7-2.73-12.35-2.73-17.08,0-2.37,1.37-3.55,3.16-3.56,4.94s1.15,3.58,3.5,5c4.7,2.73,12.35,2.73,17.08,0C155.84,242.43,157,240.65,157,238.85Zm-1.05,0a4.35,4.35,0,0,1-1.92,3.29,9.94,9.94,0,0,1-1.12.76,17.75,17.75,0,0,1-16,0,8.58,8.58,0,0,1-1.06-.73,4.33,4.33,0,0,1-1.92-3.29c0-1.48,1.08-2.92,3-4.05a17.75,17.75,0,0,1,16,0C154.92,235.94,156,237.37,156,238.84Z" style="fill:#fff;opacity:0.8"></path><path d="M154.06,242.13a5,5,0,0,0-2.35-2.45,13.5,13.5,0,0,0-6.72-1.61,13.66,13.66,0,0,0-6.74,1.61,5.08,5.08,0,0,0-2.39,2.48,4.33,4.33,0,0,1-1.92-3.29c0-1.48,1.08-2.92,3-4.05a17.75,17.75,0,0,1,16,0c1.92,1.12,3,2.55,3,4A4.35,4.35,0,0,1,154.06,242.13Z" style="fill:#fff;opacity:0.6000000000000001"></path><path d="M138.25,239.68a13.66,13.66,0,0,1,6.74-1.61,13.5,13.5,0,0,1,6.72,1.61,5,5,0,0,1,2.35,2.45,9.94,9.94,0,0,1-1.12.76,17.75,17.75,0,0,1-16,0,8.58,8.58,0,0,1-1.06-.73A5.08,5.08,0,0,1,138.25,239.68Z" style="fill:#632828"></path><circle cx="117.87" cy="197.22" r="9.61" style="fill:#263238"></circle></g></svg>