<svg xmlns="http://www.w3.org/2000/svg" viewBox="0 0 700 500"><g id="freepik--background-simple--inject-2"><path d="M540.73,349.84c25.5-51,27.22-118.91,9.61-173.37-15.16-46.89-48.89-82.65-87.85-103.95-45.2-24.71-99.08-32.06-147.58-16.47-12.77,4.1-25.19,7.86-37.22,14.6-49.32,27.62-39.8,95.69-57.1,119.37-14.56,19.92-42.4,14-60,29.31-47.36,41.2-47.48,145.32,7.16,177.87C225.78,431.73,477.56,476.12,540.73,349.84Z" style="fill:#43CEA2"></path><path d="M540.73,349.84c25.5-51,27.22-118.91,9.61-173.37-15.16-46.89-48.89-82.65-87.85-103.95-45.2-24.71-99.08-32.06-147.58-16.47-12.77,4.1-25.19,7.86-37.22,14.6-49.32,27.62-39.8,95.69-57.1,119.37-14.56,19.92-42.4,14-60,29.31-47.36,41.2-47.48,145.32,7.16,177.87C225.78,431.73,477.56,476.12,540.73,349.84Z" style="fill:#fff;opacity:0.8"></path></g><g id="freepik--Pictures--inject-2"><rect x="208" y="139" width="40" height="75" style="fill:none;stroke:#263238;stroke-miterlimit:10"></rect><rect x="212.8" y="148" width="30.4" height="57" style="fill:none;stroke:#263238;stroke-miterlimit:10"></rect><rect x="478" y="139" width="40" height="75" style="fill:none;stroke:#263238;stroke-miterlimit:10"></rect><rect x="482.8" y="148" width="30.4" height="57" style="fill:none;stroke:#263238;stroke-miterlimit:10"></rect><rect x="535" y="169" width="40" height="55.06" style="fill:none;stroke:#263238;stroke-miterlimit:10"></rect><rect x="539.8" y="175.61" width="30.4" height="41.85" style="fill:none;stroke:#263238;stroke-miterlimit:10"></rect><rect x="150" y="167" width="40" height="75" style="fill:none;stroke:#263238;stroke-miterlimit:10"></rect><rect x="154.8" y="176" width="30.4" height="57" style="fill:none;stroke:#263238;stroke-miterlimit:10"></rect></g><g id="freepik--Gates--inject-2"><path d="M168.8,92.39a79.27,79.27,0,0,1,26.71-4.61h0a79.28,79.28,0,0,1,79.27,79.28V474h5" style="fill:none;stroke:#263238;stroke-miterlimit:10"></path><path d="M113.69,458.08V160.32m185,0V458m-185-305.81c3.29-48,43.64-86.69,92.5-86.69a92.62,92.62,0,0,1,92.28,86.13m-17,.93a75.5,75.5,0,0,0-150.56-.65M281.69,458.12V160.32m-151,0V458.08" style="fill:none;stroke:#263238;stroke-miterlimit:10"></path><polygon points="130.73 160.32 113.83 160.32 111.82 152.26 132.83 152.26 130.73 160.32" style="fill:none;stroke:#263238;stroke-miterlimit:10"></polygon><polygon points="298.78 160.32 281.73 160.32 279.71 152.26 300.89 152.26 298.78 160.32" style="fill:none;stroke:#263238;stroke-miterlimit:10"></polygon><rect x="110.89" y="458.1" width="21.99" height="15.8" style="fill:none;stroke:#263238;stroke-miterlimit:10"></rect><rect x="279.06" y="458.1" width="21.99" height="15.8" style="fill:none;stroke:#263238;stroke-miterlimit:10"></rect><path d="M552.93,92.39a79.31,79.31,0,0,0-26.71-4.61h0a79.29,79.29,0,0,0-79.28,79.28V474h-5" style="fill:none;stroke:#263238;stroke-miterlimit:10"></path><path d="M608,458.08V160.32m-185,0V458M608,152.19c-3.28-48-43.63-86.69-92.49-86.69a92.61,92.61,0,0,0-92.28,86.13m17,.93a75.51,75.51,0,0,1,150.57-.65M440,458.12V160.32m151,0V458.08" style="fill:none;stroke:#263238;stroke-miterlimit:10"></path><polygon points="591 160.32 607.89 160.32 609.91 152.26 588.89 152.26 591 160.32" style="fill:none;stroke:#263238;stroke-miterlimit:10"></polygon><polygon points="422.94 160.32 440 160.32 442.01 152.26 420.83 152.26 422.94 160.32" style="fill:none;stroke:#263238;stroke-miterlimit:10"></polygon><rect x="588.84" y="458.1" width="21.99" height="15.8" transform="translate(1199.67 932) rotate(180)" style="fill:none;stroke:#263238;stroke-miterlimit:10"></rect><rect x="420.68" y="458.1" width="21.99" height="15.8" transform="translate(863.34 932) rotate(180)" style="fill:none;stroke:#263238;stroke-miterlimit:10"></rect></g><g id="freepik--character-3--inject-2"><path d="M524.87,463a50.33,50.33,0,0,1-6.73,5c-2.64,1.44-8.65,3.85-8.41,4.57s2.16,1.44,3.85,1.44h15.14l3.36-1.2,2.16-1.2.25,2.4h5.76L540,463.67Z" style="fill:#8c8c8c;stroke:#263238;stroke-linecap:round;stroke-linejoin:round"></path><path d="M566,461.5V473h17.78s.48-.24,0-1.2-3.36-3.13-5-5.29a37,37,0,0,1-3.36-5.77Z" style="fill:#8c8c8c;stroke:#263238;stroke-linecap:round;stroke-linejoin:round"></path><path d="M517.9,331.25s-.48,50.23-.48,60.8S521,443,521,446.84s-.24,16.35-.24,16.35,3.36.48,7.45,1,11.77-.48,11.77-.48V449c0-3.13,4.33-61.29,4.33-61.29l.24-16.58s6.25,30,7,35.09,9.85,56.47,9.85,56.47h16.1s.24-34.36.48-42.77.72-36.77.72-38.21,2.41-33.89,2.41-33.89l-3.85-19.47-58.4-1.44Z" style="fill:#263238;stroke:#263238;stroke-linecap:round;stroke-linejoin:round"></path><polyline points="544.58 371.14 539.77 355.76 534.97 353.84" style="fill:none;stroke:#7d7d7d;stroke-linecap:round;stroke-linejoin:round"></polyline><line x1="566.69" y1="371.38" x2="567.65" y2="388.2" style="fill:none;stroke:#7d7d7d;stroke-linecap:round;stroke-linejoin:round"></line><line x1="567.89" y1="392.77" x2="571.01" y2="460.06" style="fill:none;stroke:#7d7d7d;stroke-linecap:round;stroke-linejoin:round"></line><path d="M496,329.81s-9.37,4.32-11,6-2.64,8.66-1.44,11.78,3.36,1,5.28.72a2.57,2.57,0,0,0,2.41-3.12c-.24-1.44.48-2.89,1.44-3.13s5.77-2.88,7.21-5.76S496,329.81,496,329.81Z" style="fill:#fff;stroke:#263238;stroke-miterlimit:10"></path><path d="M495.79,352.88S495,340.52,486.9,343c-6.25,1.93-2.4,18.27-2.4,18.27l18.57,110.76" style="fill:none;stroke:#263238;stroke-linecap:round;stroke-miterlimit:10;stroke-width:4px"></path><path d="M491.23,338.46s-4.09,2.16-4.33,3.36-.72,6.25-.72,7,2.4.72,2.64-.48S490,344,490,344s4.56-1.69,6.24-3.61,1.69-2.64,1.69-2.64" style="fill:#fff;stroke:#263238;stroke-miterlimit:10"></path><path d="M519.83,256.51A39.49,39.49,0,0,0,514.54,268c-1.44,6-3.13,44-3.13,44l-16.82,17.79,7.69,12.25,13-7.45s2.16-17.54,4.08-32,5-44,5.29-44.94S522,254.59,519.83,256.51Z" style="fill:#8c8c8c;stroke:#263238;stroke-miterlimit:10"></path><path d="M519.34,329.09s14.66,6.72,36.53,2.4c0,0,.24-2.4,5.53-29.8s8.89-49,8.89-49a21.8,21.8,0,0,0-9.37-5.76c-5.77-1.69-22.59,2.64-27.64,4.8S519.34,319,519.34,329.09Z" style="fill:#43CEA2;stroke:#263238;stroke-linecap:round;stroke-linejoin:round"></path><path d="M556.79,314.58l-4.49,5.7-4.48-5.7-4.49,5.7-4.48-5.7-4.49,5.7-4.48-5.7-4.49,5.7-3.77-4.8q-.09.69-.15,1.35l3.92,5,4.49-5.69,4.48,5.69,4.49-5.69,4.48,5.69,4.49-5.69,4.48,5.69,4.49-5.69.74.94c.07-.4.15-.82.23-1.24Z" style="fill:#fff"></path><path d="M525.39,296.36l4.49-5.69,4.48,5.69,4.49-5.69,4.48,5.69,4.49-5.69,4.48,5.69,4.49-5.69,4.48,5.69.27-.34.39-2-.66.83-4.48-5.69-4.49,5.69-4.48-5.69-4.49,5.69-4.48-5.69-4.49,5.69-4.48-5.69-4.49,5.69-.87-1.11c-.06.43-.13.86-.19,1.29Z" style="fill:#fff"></path><path d="M529.62,265.56l.26-.33,4.48,5.69,4.49-5.69,4.48,5.69,4.49-5.69,4.48,5.69,4.49-5.69,4.48,5.69,4.48-5.69,1.16,1.47c.08-.43.15-.85.22-1.26l-1.38-1.74-4.48,5.69-4.48-5.69-4.49,5.69-4.48-5.69-4.49,5.69-4.48-5.69-4.49,5.69L530,263.87C529.88,264.42,529.75,265,529.62,265.56Z" style="fill:#fff"></path><path d="M555.94,325.67c.1-.58.22-1.23.36-2l-4,5.08-4.48-5.7-4.49,5.7-4.48-5.7-4.49,5.7-4.48-5.7-4.49,5.7-4.48-5.7-.07.08c-.05.61-.09,1.18-.12,1.7l.19-.24,3.23,4.1c.61.18,1.3.37,2.06.57l3.68-4.67,4.48,5.69,4.49-5.69,4.48,5.69,4.49-5.69,4.45,5.64h.08Z" style="fill:#fff"></path><path d="M561.27,277.87l-4.48-5.69-4.49,5.69-4.48-5.69-4.49,5.69-4.48-5.69-4.49,5.69-4.48-5.69L527.66,275c-.12.66-.25,1.33-.37,2l2.59-3.28,4.48,5.69,4.49-5.69,4.48,5.69,4.49-5.69,4.48,5.69,4.49-5.69,4.48,5.69,4.37-5.55.27-1.48-.16-.19Z" style="fill:#fff"></path><path d="M529.88,299.15l4.48,5.69,4.49-5.69,4.48,5.69,4.49-5.69,4.48,5.69,4.49-5.69,3.34,4.25.24-1.24-3.58-4.54-4.49,5.69-4.48-5.69-4.49,5.69-4.48-5.69-4.49,5.69-4.48-5.69-4.49,5.69-1.91-2.43-.18,1.31,2.09,2.65Z" style="fill:#fff"></path><path d="M529.88,307.63l4.48,5.7,4.49-5.7,4.48,5.7,4.49-5.7,4.48,5.7,4.49-5.7,2,2.59c.08-.4.16-.82.24-1.24l-2.27-2.88-4.49,5.69-4.48-5.69-4.49,5.69-4.48-5.69-4.49,5.69-4.48-5.69-4.49,5.69-2.88-3.66c-.06.45-.12.89-.17,1.32l3,3.88Z" style="fill:#fff"></path><path d="M556.79,280.66l-4.49,5.69-4.48-5.69-4.49,5.69-4.48-5.69-4.49,5.69-4.48-5.69-4.13,5.24c-.11.64-.21,1.28-.31,1.93l4.44-5.64,4.48,5.69,4.49-5.69,4.48,5.69,4.49-5.69,4.48,5.69,4.49-5.69,4.48,5.69,2.36-3c.12-.68.25-1.34.37-2l-2.73,3.46Z" style="fill:#fff"></path><path d="M543.38,246.41s-20.67,8.18-22.59,8.9-2.89,3.84-2.89,3.84-4.8,67.77-4.8,72.1-.72,17.3-.72,17.3,3.84,4.09,6.48,5.05a36.08,36.08,0,0,0,5.53,1.44s0-48.3,3.13-67.53,8.65-33.16,10.33-35.81S543.38,246.41,543.38,246.41Z" style="fill:#8c8c8c;stroke:#263238;stroke-linecap:round;stroke-linejoin:round"></path><path d="M543.38,246.41l-10.53,4.16-7.07,8.94,2.25,8.65-5.45,4.49,4,21.88c.27-2.61.56-5,.9-7,3.12-19.23,8.65-33.16,10.33-35.81S543.38,246.41,543.38,246.41Z" style="fill:#8c8c8c;stroke:#263238;stroke-linecap:round;stroke-miterlimit:10"></path><path d="M543.38,244.25s-6,5.77-6.73,7.69.72,26.44,1.68,27.4,23.55-25.72,24.75-28.6,1.45-3.84.72-5.53-1.2-2.64-1.2-2.64Z" style="fill:#fff;stroke:#263238;stroke-linecap:round;stroke-linejoin:round"></path><path d="M536.65,261.56c.72,0,8.89-6.25,8.89-6.25l5.53,10.09" style="fill:#fff;stroke:#263238;stroke-linecap:round;stroke-linejoin:round"></path><path d="M563.8,245.21s-9.13,25.24-12.49,39.9-1.44,51.43.24,55,27.88,14.66,27.88,14.66l6,.24s-3.6-23.07-4.32-32.2-1-24-1-28.36,5.76-34.13,4.56-37.25S563.8,245.21,563.8,245.21Z" style="fill:#8c8c8c;stroke:#263238;stroke-linecap:round;stroke-linejoin:round"></path><path d="M569.21,247.76c-3.09-1.5-5.41-2.55-5.41-2.55s-9.13,25.24-12.49,39.9c-1.09,4.76-1.63,11.85-1.79,19.38l16.63-25.12-8-7.69,9.62-3.52Z" style="fill:#8c8c8c;stroke:#263238;stroke-linecap:round;stroke-miterlimit:10"></path><path d="M563.8,233.2s-1,10.57-2.16,12.49-13,9.14-14.9,9.14-3.12-2.65-3.84-5.53c-.53-2.11.1-5.37.47-7,.14-.59.25-1,.25-1Z" style="fill:#fff;stroke:#263238;stroke-linecap:round;stroke-linejoin:round"></path><path d="M552.75,200s-10.57,1.68-12.74,6.73-2.64,14.66-2.64,18.51,1.2,14.42,3.12,16.34,6.24,2.14,9.14,1.92c3.12-.24,11.53-5.29,13.69-6.73s4.33-6,4.33-6a31.85,31.85,0,0,1,4.57-5.52c2.4-2.17,3.6-11.54,1.68-16.83S560.92,198.83,552.75,200Z" style="fill:#fff;stroke:#263238;stroke-miterlimit:10"></path><path d="M564.29,201.47s4.56,2.89,2.64,5.53-7.69-.72-8.41,4.09,3.12,5.52,3.6,7.45,1.68,6,3.37,6.73,2.4,4.8,3.84,4.56,7.45-7,7.69-14.18S571.25,199.79,564.29,201.47Z" style="fill:#c4c4c4;stroke:#263238;stroke-miterlimit:10"></path><path d="M566.93,222.62s-14.9.48-20.91,0a66,66,0,0,1-8.54-1.19c-.08,1.53-.11,2.87-.11,3.84,0,3.84,1.2,14.42,3.12,16.34s6.24,2.14,9.14,1.92c1.5-.12,4.25-1.35,6.92-2.77,2-1.69,3.46-3.33,4.61-4.2,1.92-1.44,5.53-6.25,5.53-6.25l-7.93,6.49a9.84,9.84,0,0,1-.72-4.08,82.28,82.28,0,0,1,1-8.66Z" style="fill:#43CEA2;stroke:#263238;stroke-linecap:round;stroke-linejoin:round"></path><path d="M548.66,215.17s3.37-.24,5.29,1.93" style="fill:none;stroke:#263238;stroke-linecap:round;stroke-miterlimit:10;stroke-width:2px"></path><path d="M543.86,214.93a5.14,5.14,0,0,0-4.09.48" style="fill:none;stroke:#263238;stroke-linecap:round;stroke-miterlimit:10;stroke-width:2px"></path><path d="M551.31,219.74c0,.93-.38,1.68-.84,1.68s-.84-.75-.84-1.68.37-1.68.84-1.68S551.31,218.81,551.31,219.74Z" style="fill:#263238"></path><path d="M542.3,218.78c0,.93-.38,1.68-.85,1.68s-.84-.75-.84-1.68.38-1.68.84-1.68S542.3,217.85,542.3,218.78Z" style="fill:#263238"></path><line x1="545.54" y1="217.82" x2="543.38" y2="222.14" style="fill:none;stroke:#263238;stroke-miterlimit:10"></line><path d="M563.56,225.51s3.85-6,5.77-4.81,1.44,6.73,0,9.13-5,.48-5,.48" style="fill:#fff;stroke:#263238;stroke-miterlimit:10"></path><polygon points="571.5 342.54 565.25 347.83 572.94 356.48 577.26 349.03 571.5 342.54" style="fill:#fff;stroke:#263238;stroke-linecap:round;stroke-linejoin:round"></polygon><path d="M575.34,285.11l11.54,31.24L569.33,342.3l9.37,10.82S608,321.88,608.5,320s-.72-7-1.44-9.37S591.92,265.64,590,262.52s-7.45-7-7.45-7" style="fill:#8c8c8c;stroke:#263238;stroke-linecap:round;stroke-linejoin:round"></path></g><g id="freepik--character-2--inject-2"><path d="M231.71,474h14a25,25,0,0,0,.27-5.73c-.27-2.46-.82-6.14-.82-6.14l-14.87.14Z" style="fill:#fff;stroke:#263238;stroke-miterlimit:10"></path><path d="M231.46,471.87l.25,2.13h14s.16-.94.26-2.18h-13.9Z" style="fill:#fff;stroke:#263238;stroke-miterlimit:10"></path><path d="M210.83,463.08a88.56,88.56,0,0,1-7.78,5.46c-2.31,1.23-4.5,3.14-4.5,4.23v1.09h34.38a57.43,57.43,0,0,1-.4-6.82,17.51,17.51,0,0,0-.55-5.32l-19.92-1Z" style="fill:#fff;stroke:#263238;stroke-miterlimit:10"></path><path d="M232.66,471.82H198.93a1.82,1.82,0,0,0-.38.95v1.09h34.38A9.48,9.48,0,0,0,232.66,471.82Z" style="fill:#fff;stroke:#263238;stroke-miterlimit:10"></path><path d="M195.72,348.58s3,32.34,4.67,46.34,12,59.66,12,59.66-2.34,2.34-2.34,4.34v4.66s7.67,4,12.67,4a40,40,0,0,0,9.67-1.33,13.14,13.14,0,0,0,7.66,0,17.82,17.82,0,0,0,6-3.67s2.34-8.33,2-11a66,66,0,0,1-.66-8.66c0-3.34,14.66-61,15-63.34s6-19,6-25.33a46.83,46.83,0,0,0-1-10.33l-69.34.66S196.05,344.92,195.72,348.58Z" style="fill:#263238;stroke:#263238;stroke-miterlimit:10"></path><path d="M246.39,364.58l-10.34,5s-3,74-3,77,1,4.34,1,7.67-1.66,12-1.66,12" style="fill:none;stroke:#707070;stroke-miterlimit:10"></path><path d="M209.83,224.28s-3.92,6.38-3.18,7.85,5.64,12.5,8.33,12.75,8.09-2.7,8.09-2.7.25,5.39-1,7.6-5.64,5.39-13.48,10-12.26,4.66-13.24,7.84-9.81,46.83-9.81,51.73,8.34,26,8.34,26l-.49,6.37s10.05,1.23,26.23,2,39.71-2.7,43.15-3.19a25,25,0,0,0,6.12-1.71l.74-5.64s3.92-26.48,3.68-29.42-10.3-43.63-11-46.33-4.66-6.37-8.34-8.34-14.71-7.35-15.93-10.54-.25-12,.24-12.74,4.17-3.44-.73-14-13.24-15-19.86-12S209.83,224.28,209.83,224.28Z" style="fill:#fff;stroke:#263238;stroke-miterlimit:10"></path><path d="M224.54,230.17s-8.33-3.93-8.82-7.11,4.66-9.07,4.66-9.07-5.15,3.18-7.36,5.64a19.81,19.81,0,0,0-3.19,4.65s-6.86-2-7.6-7.35S212,200.5,224.3,198.79s19.12.73,22.8,7.35,3.67,15,.73,20.35S241,238.26,237.29,238,224.54,230.17,224.54,230.17Z" style="fill:#263238;stroke:#263238;stroke-miterlimit:10"></path><path d="M226.5,232.86l-6.12,8.83s-3.19-1.47-3.44-6.13,1.23-6.86,1.23-6.86l5.64-.74v-1l-16.43,1.9c-.61,1.38-1,2.68-.73,3.25.73,1.47,5.64,12.5,8.33,12.75,1.64.14,4.27-.88,6.08-1.71.34-.44.54-.75.54-.75l5.39-8.09Z" style="fill:#43CEA2;stroke:#263238;stroke-miterlimit:10"></path><path d="M221.11,231.15s1.47-7.85,5.39-7.6,2.46,8.33,1.72,10-4.17,1.47-4.9,1" style="fill:#fff;stroke:#263238;stroke-miterlimit:10"></path><path d="M268.91,348.82l.74-5.64s3.92-26.48,3.68-29.42-10.3-43.63-11-46.33-4.66-6.37-8.34-8.34c-1.51-.8-4.25-2.18-7.05-3.75-2.9,1-6.51,2-10.85,3-9.58,2.21-19.16.13-23.33-1q-1.87,1.17-4.12,2.51c-7.85,4.66-12.26,4.66-13.24,7.84s-9.81,46.83-9.81,51.73,8.34,26,8.34,26l-.49,6.37s10.05,1.23,26.23,2,39.71-2.7,43.15-3.19A25,25,0,0,0,268.91,348.82Z" style="fill:#43CEA2"></path><path d="M188,329.16c.22.66.44,1.33.67,2h82.69c.09-.66.18-1.33.28-2Z" style="fill:#fff"></path><path d="M186.06,322.5c.14.62.31,1.29.51,2h85.68c.09-.68.18-1.35.26-2Z" style="fill:#fff"></path><path d="M270.43,337.82c.09-.63.18-1.3.28-2H190.3c.25.69.49,1.36.73,2Z" style="fill:#fff"></path><path d="M263.26,271.21c-.2-.77-.36-1.44-.51-2H195c-.12.55-.27,1.22-.45,2Z" style="fill:#fff"></path><path d="M193.61,349.15l-.15,2h64.91c2.16-.29,3.71-.52,4.42-.62a26.43,26.43,0,0,0,5.32-1.38Z" style="fill:#fff"></path><path d="M269.75,342.48h-77c.31.82.57,1.51.77,2h75.93l.17-1.3S269.69,342.93,269.75,342.48Z" style="fill:#fff"></path><path d="M186,315.84c-.11.77-.2,1.43-.26,2h87.36c.08-.74.14-1.42.19-2Z" style="fill:#fff"></path><path d="M192.16,282.53c-.13.66-.26,1.33-.4,2h74.78c-.16-.67-.33-1.34-.49-2Z" style="fill:#fff"></path><path d="M193.54,275.87c-.14.64-.28,1.31-.42,2h71.79l-.5-2Z" style="fill:#fff"></path><path d="M187.05,309.18c-.12.69-.24,1.36-.35,2h86.14c-.12-.59-.27-1.26-.44-2Z" style="fill:#fff"></path><path d="M198.88,264.55h61.78a20.57,20.57,0,0,0-1.89-2H203.42C201.6,263.39,200.09,264,198.88,264.55Z" style="fill:#fff"></path><path d="M188.26,302.52c-.13.67-.25,1.34-.37,2h83.45c-.15-.65-.31-1.31-.47-2Z" style="fill:#fff"></path><path d="M189.52,295.86c-.12.67-.25,1.33-.38,2h80.62c-.15-.66-.31-1.33-.47-2Z" style="fill:#fff"></path><path d="M190.83,289.2c-.13.66-.27,1.33-.4,2h77.73l-.48-2Z" style="fill:#fff"></path><path d="M268.91,348.82l.74-5.64s3.92-26.48,3.68-29.42-10.3-43.63-11-46.33-4.66-6.37-8.34-8.34c-1.51-.8-4.25-2.18-7.05-3.75-2.9,1-6.51,2-10.85,3-9.58,2.21-19.16.13-23.33-1q-1.87,1.17-4.12,2.51c-7.85,4.66-12.26,4.66-13.24,7.84s-9.81,46.83-9.81,51.73,8.34,26,8.34,26l-.49,6.37s10.05,1.23,26.23,2,39.71-2.7,43.15-3.19A25,25,0,0,0,268.91,348.82Z" style="fill:none;stroke:#263238;stroke-miterlimit:10"></path><path d="M193.9,345.39l8.58-39a10.63,10.63,0,0,1-.74-4.42c0-2.94.74-16.66.74-17.4" style="fill:none;stroke:#263238;stroke-miterlimit:10"></path><path d="M259.6,288s.73,11.28,0,12.75-2,3.92-2,4.66,9.31,29.66,10.54,33.34.73,10.05.73,10.05" style="fill:none;stroke:#263238;stroke-miterlimit:10"></path></g><g id="freepik--character-1--inject-2"><path d="M138,442.67s-.33,7-1.33,8.66a21.86,21.86,0,0,0-2.67,7c-.33,2.34,0,14.34,0,14.34h3.67l1.33-5,3.67.33s2.66,4,3.66,4,16,.67,16,.67V469s-12.66-10-13.66-11.33-1.34-7.67-1.34-10.34v-4Z" style="fill:#fff;stroke:#263238;stroke-miterlimit:10"></path><path d="M134,472.67h3.67l1.33-5,3.67.33s2.66,4,3.66,4,16,.67,16,.67V469s-12.66-10-13.66-11.33c-.69-.92-1.06-4.21-1.23-7a1.57,1.57,0,0,0-1.11.36,3.8,3.8,0,0,0-1.66,2.67s-5.67-2.67-8-2.34a21.86,21.86,0,0,0-2.67,7C133.67,460.67,134,472.67,134,472.67Z" style="fill:#263238;stroke:#263238;stroke-miterlimit:10"></path><path d="M135.67,367s4.66,25,4.33,29-4,46.33-4,46.33,5.33,3,8,3h7s11.33-45.33,11.33-50-.66-32.33-.66-32.33Z" style="fill:#263238;stroke:#263238;stroke-miterlimit:10"></path><path d="M116,442s1,7.33,0,13,0,18,0,18h19.67a6.84,6.84,0,0,0,.66-5.67c-1-3.33-4.66-6-6-9.66s-3.66-10.34-4-15S116,442,116,442Z" style="fill:#fff;stroke:#263238;stroke-miterlimit:10"></path><path d="M136.33,467.33c-1-3.33-4.66-6-6-9.66-.34-.95-.75-2.09-1.18-3.35H129s-3-2.66-5.33-.66a9.88,9.88,0,0,0-3,4.33l-5-.38A126.06,126.06,0,0,0,116,473h19.67A6.84,6.84,0,0,0,136.33,467.33Z" style="fill:#263238;stroke:#263238;stroke-miterlimit:10"></path><path d="M108.67,366.33s2,25.34.66,31.34S108.67,415,110,420s3,23,3,23a61.38,61.38,0,0,0,9,1h5.67S130,413,130,403.67v-37Z" style="fill:#263238;stroke:#263238;stroke-miterlimit:10"></path><path d="M158.67,255s3.33,1,4.66,7.33,12.67,34.34,15.34,42.34-5,31.33-5.67,34-16.67-74.67-17-78S156.33,253.67,158.67,255Z" style="fill:#fff;stroke:#263238;stroke-miterlimit:10"></path><line x1="86.67" y1="331.67" x2="99.67" y2="279" style="fill:#fff;stroke:#263238;stroke-linecap:round;stroke-miterlimit:10;stroke-width:2px"></line><path d="M122.67,245.67l-1.13.67C117,249.05,100.44,255.84,99,259c-1.67,3.67-6.33,110.67-6.33,110.67s18,2,29.66,2,36.34-2.67,43.34-4a87.1,87.1,0,0,0,11.66-3s-16.66-107-18.66-109.67-19.39-11.61-19.39-11.61S127.67,241,122.67,245.67Z" style="fill:#fff;stroke:#263238;stroke-miterlimit:10"></path><line x1="137.33" y1="299" x2="142.67" y2="370.67" style="fill:#fff;stroke:#263238;stroke-miterlimit:10"></line><polygon points="145 245.33 149 264.33 143.67 267.33 149 275.67 137 300 121.33 267.67 126.33 264 119.67 261 122.67 245.67 132.67 242.67 145 245.33" style="fill:#fff;stroke:#263238;stroke-miterlimit:10"></polygon><polygon points="125.33 248.33 137 297 141.33 247.67 131 242.33 125.33 248.33" style="fill:#263238;stroke:#263238;stroke-miterlimit:10"></polygon><path d="M121.5,247.83l-2,93.25,21.25,1.25s-5.25-57.5-6.25-72L133,248.58Z" style="fill:#43CEA2;stroke:#263238;stroke-miterlimit:10"></path><path d="M118.87,187a18.83,18.83,0,0,0-14.14,7.78c-2.5,3.4-5.19,8.14-4.73,12.37.83,7.66,9.83,7.66,14.5,5.66s16.17-11.66,16.5-17.16S126.33,187,119.83,187Z" style="fill:#263238;stroke:#263238;stroke-linecap:round;stroke-linejoin:round"></path><path d="M134.9,198.45s-10.8-2.63-17.51,2.62-7.88,14.89-5.84,19,10.22,13.72,10.22,13.72l1.16,7.88,16.35,1.75V237s8.17-.88,8.46-9.05-5-18.38-5-18.38A13.52,13.52,0,0,0,134.9,198.45Z" style="fill:#b2b2b2;stroke:#263238;stroke-linecap:round;stroke-linejoin:round"></path><path d="M120.89,222.09l-.29,5.25c4.09,6.13,17.51,9,17.51,9a6.67,6.67,0,0,0,5.08-.76,8.71,8.71,0,0,0,4.55-7.71c.18-5-1.71-10.74-3.21-14.46C131.3,212.19,120.89,222.09,120.89,222.09Zm6.54,9.16-5.57-3.68-.36-4.94,5.75-3.69S129.14,225.68,127.43,231.25Z" style="fill:#43CEA2;stroke:#263238;stroke-miterlimit:10"></path><path d="M134.9,198.45s-10.8-2.63-17.51,2.62-7.88,14.89-5.84,19c1.48,3,6.12,8.76,8.61,11.79a2.62,2.62,0,0,0,1-1c1.83-3.16.33-10.66.33-11.83s-2.83-3.5-2.67-6.83,1.67-9.17,9-12.17c5-2,8.32-.78,10,.24A13.61,13.61,0,0,0,134.9,198.45Z" style="fill:#263238;stroke:#263238;stroke-linecap:round;stroke-linejoin:round"></path><path d="M124.39,223s-4.67-5.84-7.29-2.92,2.33,7.88,3.79,8.76,3.5-1.75,3.5-1.75" style="fill:#b2b2b2;stroke:#263238;stroke-linecap:round;stroke-linejoin:round"></path><path d="M133.32,211c.25.83.07,1.61-.4,1.76s-1.06-.42-1.31-1.24-.06-1.62.41-1.76S133.08,210.16,133.32,211Z" style="fill:#263238"></path><path d="M140.17,209.65c.25.83.07,1.61-.4,1.76s-1.06-.42-1.31-1.24-.06-1.62.41-1.76S139.93,208.82,140.17,209.65Z" style="fill:#263238"></path><path d="M137.23,207.3s-.29,3.73,1.94,6" style="fill:none;stroke:#263238;stroke-linecap:round;stroke-linejoin:round"></path><path d="M133.51,207.45s-3.72-1.64-5.21,3.13" style="fill:none;stroke:#263238;stroke-linecap:round;stroke-linejoin:round"></path><path d="M137.09,206.26s1.63-3,3.87.45" style="fill:none;stroke:#263238;stroke-linecap:round;stroke-linejoin:round"></path><path d="M119,239.08s0,8.75,2,10,12,2,16.5,1.75,5-1,6-4.25.25-7-1.25-7.25S122,236.58,121,236.58,118.75,237.08,119,239.08Z" style="fill:#43CEA2;stroke:#263238;stroke-miterlimit:10"></path><path d="M107.67,253.67s10.33,46.66,11,52.66S117.33,334,117.33,334" style="fill:none;stroke:#263238;stroke-linecap:round;stroke-miterlimit:10;stroke-width:2px"></path><path d="M112.33,305.67l4-5.67,6.34-.33s2.33,1,2.33,2a5.12,5.12,0,0,1-1,2.33s2,6.67,0,8.33a20,20,0,0,1-8,4.34,26.64,26.64,0,0,1-6.33,1L108.33,307Z" style="fill:#b2b2b2;stroke:#263238;stroke-miterlimit:10"></path><path d="M103,256.33a18.9,18.9,0,0,0-7.67,5.34c-2,2.66-16.66,51.33-17.66,55.33s3,7.67,10,7.67,23.66-3.34,23.66-3.34l1-15.66-12,.33L107,284" style="fill:#fff;stroke:#263238;stroke-miterlimit:10"></path><line x1="100.33" y1="306" x2="88.67" y2="306.33" style="fill:#fff;stroke:#263238;stroke-miterlimit:10"></line><path d="M84.33,329.33l33.34,2s1.33,32,1.66,37.34-1.66,7-6.66,8.33-27-1.33-31-3.67S84.33,329.33,84.33,329.33Z" style="fill:#8c8c8c;stroke:#263238;stroke-linecap:round;stroke-linejoin:round"></path><path d="M84.33,329.33s0,21.34,9.67,23.34,18.67-21,18.67-21Z" style="fill:#8c8c8c;stroke:#263238;stroke-linecap:round;stroke-linejoin:round"></path><path d="M119.33,368.67c-.33-5.34-1.66-37.34-1.66-37.34l-7.16-.43-.18.43S106,373,107.33,375s1.34,1.33,5.34,2C117.67,375.67,119.67,374,119.33,368.67Z" style="fill:#8c8c8c;stroke:#263238;stroke-linecap:round;stroke-linejoin:round"></path></g><g id="freepik--Sculpture--inject-2"><path d="M350.94,212s-19.8.5-21.32,2-5.08,9.65-3.81,15.74,1,17,.51,23.1S319.71,275,320,278.29s1.52,5.84,1.78,7.62,1.52,2.54.25,4.32-3.3,11.42-4.82,13.71a15,15,0,0,0-2.54,7.11,48.13,48.13,0,0,0,.76,5.84H429.65a39.7,39.7,0,0,1,0-5.84c.26-2.8-7.11-3.3-10.66-5.34s-15.74-15.48-18.54-19.29,9.14-22.09,13.71-28.44,14.22-30.21,14.73-35.29-7.11-1.27-15.23-3.55-53.83-7.87-55.1-7.87S350.94,212,350.94,212Z" style="fill:#fff;stroke:#263238;stroke-miterlimit:10"></path><path d="M405.28,222.69s-17.52.76-19,3.05-4.58,5.84-2.8,5.33,6.1-3.56,8.89-2-.51,2.54-2.54,2.54-4.32,0-6.6,3.81-2.54,16.75-4.83,23.1-6.6,14.47-6.6,17a59.89,59.89,0,0,0,1.27,8.38s9.65,1.52,11.17.51a42.67,42.67,0,0,0,7.62-5.33c4.06-3.56,14.73-19.05,20.82-29.46s14-23.1,14.47-24.37.51-2.79-5.84-3.55S405.28,222.69,405.28,222.69Z" style="fill:#263238;stroke:#263238;stroke-miterlimit:10"></path><path d="M505.06,100.06c-1.52-4.06-7.62-13.71-9.4-15.74s-10.66-4.07-16.5-3S469,86.6,465.7,88.13s-5.83,3.3-7.61,3.55-4.32,1.52-6.6,1.78a48.57,48.57,0,0,0-7.11,1.77c-1.78.51-7.87,1.53-9.9,1.78s-14.22-1-19.05,2.29-19.55,12.44-21.58,13.45-17.52,15-21.58,19.55S359.83,153.63,357.54,158s-2.53,7.61-3,8.38-5.33,8.12-6.35,16.75,0,22.35,1.52,25.65a31,31,0,0,1,1.78,4.31s2.54,4.06,15.24,6.1,36.81,2.79,36.81,2.79,12.95,1.27,14.47,1.27,5.59.25,5.59.25a26.72,26.72,0,0,0-6.35,9.65c-2.54,6.35-9.9,21.84-12.69,25.9s-3.31,5.84-5.34,8.12-11.68,9.65-14,12.95a5.93,5.93,0,0,0,.76,7.87c1.52,1.53,6.35,3.81,6.35,3.81s15,14.22,18,17.52a25.37,25.37,0,0,0,8.37,6.09c1.53.51,5.34-1,7.11-2.28s3.56-3.05,4.07-4.83,1.77-5.84,1-7.36-1-3.3-2.79-4.57a13.91,13.91,0,0,1-4.32-4.32c-1.27-2-3.3-6.85-3.3-8.88s-.76-7.87.25-9.9a92.58,92.58,0,0,1,7.88-10.92c1.27-1.27,25.39-15,30-20.57a178.35,178.35,0,0,1,12.69-13.2l4.57-2.28s5.84,0,9.39-.26,8.38-1.27,9.15-3.55,1.52-4.83,2-5.84,2-10.16.5-14.73-5.07-9.39-8.88-10.66-10.16-4.57-11.43-5.84a28.54,28.54,0,0,1-2.54-3.05s18-24.88,19.3-29.2,1.27-9.9,0-12.18-4.57-8.38-5.08-9.65-1.27-2.8-1.27-2.8,2.54.51,4.32-2.53,3.55-6.86,3.55-6.86,2.54-1.52,3.05-3a24.94,24.94,0,0,0,.76-2.79s7.36-1.52,7.36-3.81S506.58,104.12,505.06,100.06Zm-82.52,84-17.77-.76s11.42-4.57,15.49-9.65,7.36-9.65,7.36-9.65l3.81-1s1.27,4.32,2.54,7.62,5.08,9.14,5.84,11.68a27.75,27.75,0,0,0,1.52,4.06Zm62.21,28.43c1.27-.76,1.77,2.8,1,3.81a19.37,19.37,0,0,1-3.81,2.8Zm-26.66-87.34,6.85-.5,2.8,3.55s-.77,1.27-3.81,1.52-4.06.26-4.06.26a20.49,20.49,0,0,0-1-2.79A11,11,0,0,1,458.09,125.19Zm5.58,11.68a19.34,19.34,0,0,1-3.8,2.29l.76-4.32,3.55.26S465.2,135.6,463.67,136.87Zm6.1,23.87c-4.83,3.3-9.14,5.84-9.14,5.84s.5-4.82.5-9.14S458.6,145,458.6,145s4.82-2,6.34-2.79a11.85,11.85,0,0,1,6.6-.51c1.27.51,3.3,3.81,5.34,5.08a15,15,0,0,1,3.3,2.79S474.59,157.44,469.77,160.74Z" style="fill:#fff;stroke:#263238;stroke-miterlimit:10"></path><path d="M455.33,188.87s4.31,3.7,8.32-.31,10.79-11.1,10.79-11.1" style="fill:none;stroke:#263238;stroke-miterlimit:10"></path><path d="M424,139.44a66,66,0,0,1-9.55,5.16c-4.91,2.07-13.43,3.1-15.5,3.1a14,14,0,0,1-3.09-.26s5.68,4.65,8.52,6.72,7,1,5.68,2.58-1.81,3.1-5.94,3.61a20.76,20.76,0,0,1-6.46,0s5.68,4.39,7,4.65,2.32,2.33-2.59,3.1-10.84-3.1-11.36-.51a9.8,9.8,0,0,0,1.55,2.84c1.29,1.8,1.55,3.87.52,3.87h-1s7.23,2.58,5.94,4.13-4.9,1.29-3.61,2.84,8,3.62,12.13,1.55,11.72-6.13,14.13-9.13,6.53-10,6.53-10l4.64-.69s-2.54-9.14-4.32-14.21a98,98,0,0,1-3-11.94" style="fill:#263238;stroke:#263238;stroke-miterlimit:10"></path><path d="M447.68,112.75s8.88,8.64,10.41,12.44,3,6.61,2.54,9.65-2.54,7.62-2.29,8.89" style="fill:none;stroke:#263238;stroke-miterlimit:10"></path><path d="M476.88,103.11s1-4.32,0-6.1-5.84.26-6.35,3a19.57,19.57,0,0,0-.26,5.08s-2.28,2.28-.76,4.06,3.56,0,3.56,0" style="fill:none;stroke:#263238;stroke-miterlimit:10"></path><path d="M505.06,110.72s1.27-2.28-.26-3-2-1-5.33-1-5.33-2.79-6.85-2.79-2.8.76-3.56.76-1.27-.51-2.28-.51h-7.87l-1.53.25s.51-3.55-.76-3.8-5.33,2-5.08,3.55a5.21,5.21,0,0,0,1.27,2.54s2.54.25,3.3-.25,4.83-.51,7.88.76,2.79.76,5.58,2a53.18,53.18,0,0,1,5.59,3,5.28,5.28,0,0,1,.5,2c0,1-1,1-2,.76s-3.55-2-5.33-2.54-4.57,2-3.05,3l3.81,2.54s-3.3,1.52-4.57.25-3.55-3-5.07-.51.25,4.06,1,4.32,2.79,2.54,1.27,3a23,23,0,0,1-3.81.77s-1.78,1-.51,1.77,7.11,1,7.11,1l2.54-.26s3.42.26,4.39-1.86,2.89-5.59,2.89-5.59l1-2.7s2.27-1.11,2.68-2.29.76-2.79.76-2.79S503.48,112,505.06,110.72Z" style="fill:#263238;stroke:#263238;stroke-miterlimit:10"></path><path d="M476.11,127.73s-3.8-1.52-5.33-.76a26.73,26.73,0,0,1-3,1.27" style="fill:none;stroke:#263238;stroke-miterlimit:10"></path><path d="M464.94,124.69a15.44,15.44,0,0,1-1.52-6.86c.25-3.3,2.79-9.9,1-9.39s-4.07,3.81-5.34,4.31-3.3.77-4.31,0-2.54-3.55-3.56-4.82-1.27-4.06-1-1.27,2.28,7.62,2.54,8.63.76,2.8.76,2.8l5.84,6.85Z" style="fill:#263238;stroke:#263238;stroke-miterlimit:10"></path><path d="M473.83,135.35s2.54,1.78,4.06,1,3.3-2,1.53-2.54-7.11-1.27-8.64-2a6.1,6.1,0,0,0-4.06-.77c-1.27.26-5.33,1-5.33,1l-.51,1.78,3.3,1.27s1.27-2,2.54-2S473.83,135.35,473.83,135.35Z" style="fill:#263238;stroke:#263238;stroke-miterlimit:10"></path><path d="M464.69,136.11a11.44,11.44,0,0,0,4.82,3.3c3.3,1.27,6.1,1.53,7.37,2s6.09,3.05,6.85,3.3,2.29.51,2,2.29-1.52,5.33-2.54,5.84a28.15,28.15,0,0,1-4.06,1.78,12.29,12.29,0,0,0-3.05,2l-1.52.76-2.87,1.11,8.46-9a32.71,32.71,0,0,1-4.07-3.68c-1.29-1.54-3.71-4.52-4.57-4.19s-7.56.84-8.6,1.61A19.73,19.73,0,0,1,458.6,145a8.31,8.31,0,0,1,.47-4C459.87,139.16,464.69,136.11,464.69,136.11Z" style="fill:#263238;stroke:#263238;stroke-miterlimit:10"></path><path d="M459.87,130s-.77,6.85-5.59,10.41-12.19.76-14.73,0" style="fill:none;stroke:#263238;stroke-miterlimit:10"></path><path d="M461.13,169.88s2.54,6.35.77,10.92" style="fill:none;stroke:#263238;stroke-miterlimit:10"></path><path d="M474.08,182.32c-1,.76-3.3,4.06-6.85,7.36a28,28,0,0,1-7.11,4.83,36.4,36.4,0,0,0,5.33,2.54c1.27.25,5.33-1,6.35-.26s1.52,1.53,2,.76,2.54-4.82,4.06-6.34a11.2,11.2,0,0,1,4.06-2.29,47.75,47.75,0,0,0-5.33-3.55C475.35,184.86,474.08,182.32,474.08,182.32Z" style="fill:#263238;stroke:#263238;stroke-miterlimit:10"></path><path d="M482,219.14l2.8-6.61c1.27-.76,1.77,2.8,1,3.81a19.37,19.37,0,0,1-3.81,2.8s3.81-.51,4.83-3a21.17,21.17,0,0,0,1.27-7.11c0-1.52-2.8-4.57-2.8-4.57a9.46,9.46,0,0,1-.76,5.33c-1.27,2.54-3.81,4.06-5.07,2.79s-.77-7.1-.77-7.1-1.77,8.12-2.28,8.88-3.05,1.78-3.05,0,.26-5.58.26-5.58-.26,1.27-1.27,4.82-1.27,4.82-3.05,7.36-1.52,2.8-3.81,4.57-4.32,4.32-6.85,6.35S447.93,243,446.41,244.78,429.14,261,429.14,261s-1.83,1.16-.73,1.51a2.71,2.71,0,0,1,.23-.24c1.27-1.27,25.39-15,30-20.57a178.35,178.35,0,0,1,12.69-13.2l4.57-2.28h1.06l.46-1.26s-2-1.78-.5-3.3S482,219.14,482,219.14Z" style="fill:#263238;stroke:#263238;stroke-miterlimit:10"></path><path d="M479.16,224.21s6.86-1.52,9.14-2.28a30.1,30.1,0,0,0,5.84-3.3" style="fill:none;stroke:#263238;stroke-miterlimit:10"></path><path d="M424.57,223.2s9.4-7.87,18.28-8.13" style="fill:none;stroke:#263238;stroke-miterlimit:10"></path><path d="M445.9,225.48s-7.36,13-19.55,20.06" style="fill:none;stroke:#263238;stroke-miterlimit:10"></path><path d="M429.91,246.81c-.77,0-9.65,12.95-15.75,17a54.86,54.86,0,0,0-9.14,7.36" style="fill:none;stroke:#263238;stroke-miterlimit:10"></path><path d="M443.87,211c-.76,0-5.08-.51-8.38,2s-3.55,3.81-3.55,3.81" style="fill:none;stroke:#263238;stroke-miterlimit:10"></path><path d="M423.05,139.67s-9.14,6.09-17.26,8.12S390,144,386,143.22a15.23,15.23,0,0,0-5.84-.25" style="fill:none;stroke:#263238;stroke-miterlimit:10"></path><path d="M378.62,143.73a20,20,0,0,0-4.06,3.05" style="fill:none;stroke:#263238;stroke-miterlimit:10"></path><path d="M393.34,158.45s5.59,4.32,9.65,5.34a12.15,12.15,0,0,0,7.37-.51" style="fill:none;stroke:#263238;stroke-miterlimit:10"></path><path d="M378.36,166.33s6.35,7.87,15.75,8.88" style="fill:none;stroke:#263238;stroke-miterlimit:10"></path><line x1="388.77" y1="155.92" x2="391.57" y2="157.69" style="fill:none;stroke:#263238;stroke-miterlimit:10"></line><path d="M423.05,137.64s-4.82-1.27-7.62-4.07a25.1,25.1,0,0,1-3.81-4.57" style="fill:none;stroke:#263238;stroke-miterlimit:10"></path><path d="M399.18,149.06s4.32,4.57,6.61,5.08,6.6,1.78,4.06,4.31S405.79,161.5,403,161s-7.11-.76-7.11-.76" style="fill:none;stroke:#263238;stroke-miterlimit:10"></path><path d="M389.28,173.43h4.83c2,0-3.05-2.28-3.81-4.82s3-.76,8.63,0,6.86-2,6.86-2" style="fill:none;stroke:#263238;stroke-miterlimit:10"></path><path d="M395.12,176.48c.76,0,4.32,2.29,2.29,2.79s-6.1-.76-4.57,1,8.38,3.05,8.38,3.05" style="fill:none;stroke:#263238;stroke-miterlimit:10"></path><path d="M446.66,210c1.27-1.53-4.31-2-8.63-2.8s-16.5,1-27.42,2.8-21.07,2.28-27.93.5-10.92-3.8-17.77-3.8-9.14,3.8-8.13,6.34" style="fill:none;stroke:#263238;stroke-miterlimit:10"></path><path d="M345.61,241.23s0-3.56,2.54-3.31,4.57,4.07,4.57,4.07S348.4,239.19,345.61,241.23Z" style="fill:#263238;stroke:#263238;stroke-miterlimit:10"></path><path d="M346.88,253.67s1.52-4.57,3.56-5.08,4.06,1.27,4.06,1.27S347.9,251.13,346.88,253.67Z" style="fill:#263238;stroke:#263238;stroke-miterlimit:10"></path><path d="M337.74,267.88s8.38-2.28,10.16-2" style="fill:none;stroke:#263238;stroke-miterlimit:10"></path><path d="M372.27,243s-3.81-3.3-6.85-2.54a50.25,50.25,0,0,0-5.59,1.78" style="fill:none;stroke:#263238;stroke-miterlimit:10"></path><path d="M442.2,187.07s14.32,4.69,16.79,7.16" style="fill:none;stroke:#263238;stroke-miterlimit:10"></path><path d="M422,314.23a20.39,20.39,0,0,0,3.07-2.05c.77-.77,2.05-2.57,3.08-3.59s-.51-2.31-1-3.85-3.84-3.33-5.64-6.41a41.05,41.05,0,0,1-4.1-12.31,42.89,42.89,0,0,0-2.57-8.47l7.44-7.95,2.48-3.12s-3.88,9-4.14,11.62a32.07,32.07,0,0,0,1.3,10.59c1,3.36,2.06,4.91,3.35,5.94s3.88,2.06,4.65,4.65a30.83,30.83,0,0,0,1.55,4.64c.52,1,1.29,3.1-.26,4.65,0,0-1.29,3.1-3.1,4.13S422,314.23,422,314.23Z" style="fill:#263238;stroke:#263238;stroke-miterlimit:10"></path><rect x="289" y="313.26" width="179" height="160.74" style="fill:#fff;stroke:#263238;stroke-miterlimit:10;stroke-width:0.8685997561306612px"></rect><rect x="429.22" y="313.26" width="38.78" height="160.74" style="fill:#263238;stroke:#263238;stroke-miterlimit:10;stroke-width:0.8685997561306612px"></rect></g><g id="freepik--Floor--inject-2"><line x1="47.5" y1="474" x2="657.5" y2="474" style="fill:none;stroke:#263238;stroke-linecap:round;stroke-linejoin:round;stroke-width:1.0334169253667376px"></line></g></svg>